<ttFont>
    <TTGlyph name=".notdef" xMin="50" yMin="-250" xMax="450" yMax="750">
      <contour>
        <pt x="50" y="-250" on="1"/>
        <pt x="450" y="-250" on="1"/>
        <pt x="450" y="750" on="1"/>
        <pt x="50" y="750" on="1"/>
      </contour>
      <contour>
        <pt x="100" y="-200" on="1"/>
        <pt x="100" y="700" on="1"/>
        <pt x="400" y="700" on="1"/>
        <pt x="400" y="-200" on="1"/>
      </contour>
    </TTGlyph>
    <TTGlyph name="Euro" xMin="69" yMin="-38" xMax="485" yMax="645">
      <contour>
        <pt x="69" y="229" on="1"/>
        <pt x="70" y="239" on="1"/>
        <pt x="153" y="239" on="1"/>
        <pt x="145" y="276" on="0"/>
        <pt x="145" y="313" on="1"/>
        <pt x="145" y="341" on="0"/>
        <pt x="149" y="368" on="1"/>
        <pt x="73" y="368" on="1"/>
        <pt x="74" y="378" on="1"/>
        <pt x="151" y="378" on="1"/>
        <pt x="165" y="449" on="0"/>
        <pt x="251" y="571" on="0"/>
        <pt x="391" y="645" on="0"/>
        <pt x="485" y="645" on="1"/>
        <pt x="485" y="635" on="1"/>
        <pt x="394" y="635" on="0"/>
        <pt x="258" y="564" on="0"/>
        <pt x="175" y="447" on="0"/>
        <pt x="161" y="378" on="1"/>
        <pt x="409" y="378" on="1"/>
        <pt x="408" y="368" on="1"/>
        <pt x="159" y="368" on="1"/>
        <pt x="155" y="341" on="0"/>
        <pt x="155" y="313" on="1"/>
        <pt x="155" y="276" on="0"/>
        <pt x="163" y="239" on="1"/>
        <pt x="405" y="239" on="1"/>
        <pt x="404" y="229" on="1"/>
        <pt x="165" y="229" on="1"/>
        <pt x="182" y="163" on="0"/>
        <pt x="265" y="46" on="0"/>
        <pt x="396" y="-28" on="0"/>
        <pt x="485" y="-28" on="1"/>
        <pt x="485" y="-38" on="1"/>
        <pt x="394" y="-38" on="0"/>
        <pt x="258" y="38" on="0"/>
        <pt x="172" y="160" on="0"/>
        <pt x="155" y="229" on="1"/>
      </contour>
    </TTGlyph>
    <TTGlyph name="arrowboth" xMin="46" yMin="92" xMax="628" yMax="481">
      <contour>
        <pt x="243" y="92" on="1"/>
        <pt x="46" y="286" on="1"/>
        <pt x="243" y="481" on="1"/>
        <pt x="251" y="474" on="1"/>
        <pt x="65" y="291" on="1"/>
        <pt x="609" y="291" on="1"/>
        <pt x="423" y="474" on="1"/>
        <pt x="431" y="481" on="1"/>
        <pt x="628" y="286" on="1"/>
        <pt x="431" y="92" on="1"/>
        <pt x="423" y="99" on="1"/>
        <pt x="608" y="281" on="1"/>
        <pt x="66" y="281" on="1"/>
        <pt x="251" y="99" on="1"/>
      </contour>
    </TTGlyph>
    <TTGlyph name="arrowdown" xMin="98" yMin="-20" xMax="530" yMax="556">
      <contour>
        <pt x="314" y="-20" on="1"/>
        <pt x="98" y="199" on="1"/>
        <pt x="106" y="206" on="1"/>
        <pt x="309" y="1" on="1"/>
        <pt x="309" y="556" on="1"/>
        <pt x="319" y="556" on="1"/>
        <pt x="319" y="-1" on="1"/>
        <pt x="522" y="206" on="1"/>
        <pt x="530" y="199" on="1"/>
      </contour>
    </TTGlyph>
    <TTGlyph name="arrowleft" xMin="45" yMin="71" xMax="612" yMax="503">
      <contour>
        <pt x="264" y="71" on="1"/>
        <pt x="45" y="287" on="1"/>
        <pt x="264" y="503" on="1"/>
        <pt x="272" y="495" on="1"/>
        <pt x="65" y="292" on="1"/>
        <pt x="612" y="292" on="1"/>
        <pt x="612" y="282" on="1"/>
        <pt x="66" y="282" on="1"/>
        <pt x="272" y="79" on="1"/>
      </contour>
    </TTGlyph>
    <TTGlyph name="arrowright" xMin="47" yMin="71" xMax="613" yMax="503">
      <contour>
        <pt x="47" y="282" on="1"/>
        <pt x="47" y="292" on="1"/>
        <pt x="594" y="292" on="1"/>
        <pt x="387" y="495" on="1"/>
        <pt x="395" y="503" on="1"/>
        <pt x="613" y="287" on="1"/>
        <pt x="395" y="71" on="1"/>
        <pt x="387" y="79" on="1"/>
        <pt x="593" y="282" on="1"/>
      </contour>
    </TTGlyph>
    <TTGlyph name="arrowup" xMin="98" yMin="0" xMax="530" yMax="567">
      <contour>
        <pt x="310" y="0" on="1"/>
        <pt x="310" y="547" on="1"/>
        <pt x="106" y="341" on="1"/>
        <pt x="98" y="348" on="1"/>
        <pt x="314" y="567" on="1"/>
        <pt x="530" y="348" on="1"/>
        <pt x="522" y="341" on="1"/>
        <pt x="320" y="546" on="1"/>
        <pt x="320" y="0" on="1"/>
      </contour>
    </TTGlyph>
    <TTGlyph name="arrowupdn" xMin="119" yMin="-22" xMax="509" yMax="567">
      <contour>
        <pt x="314" y="-22" on="1"/>
        <pt x="119" y="176" on="1"/>
        <pt x="127" y="183" on="1"/>
        <pt x="310" y="-2" on="1"/>
        <pt x="310" y="548" on="1"/>
        <pt x="127" y="362" on="1"/>
        <pt x="119" y="370" on="1"/>
        <pt x="314" y="567" on="1"/>
        <pt x="509" y="370" on="1"/>
        <pt x="501" y="362" on="1"/>
        <pt x="320" y="547" on="1"/>
        <pt x="320" y="-1" on="1"/>
        <pt x="501" y="183" on="1"/>
        <pt x="509" y="176" on="1"/>
      </contour>
    </TTGlyph>
    <TTGlyph name="asciicircum" xMin="110" yMin="340" xMax="461" yMax="605">
      <contour>
        <pt x="110" y="340" on="1"/>
        <pt x="280" y="605" on="1"/>
        <pt x="288" y="605" on="1"/>
        <pt x="461" y="340" on="1"/>
        <pt x="451" y="340" on="1"/>
        <pt x="284" y="595" on="1"/>
        <pt x="121" y="340" on="1"/>
      </contour>
    </TTGlyph>
    <TTGlyph name="asterisk" xMin="68" yMin="318" xMax="378" yMax="671">
      <contour>
        <pt x="226" y="493" on="1"/>
        <pt x="227" y="318" on="1"/>
        <pt x="217" y="318" on="1"/>
        <pt x="219" y="494" on="1"/>
        <pt x="74" y="409" on="1"/>
        <pt x="69" y="417" on="1"/>
        <pt x="215" y="499" on="1"/>
        <pt x="68" y="582" on="1"/>
        <pt x="73" y="590" on="1"/>
        <pt x="219" y="505" on="1"/>
        <pt x="217" y="671" on="1"/>
        <pt x="227" y="671" on="1"/>
        <pt x="226" y="505" on="1"/>
        <pt x="372" y="590" on="1"/>
        <pt x="376" y="582" on="1"/>
        <pt x="228" y="499" on="1"/>
        <pt x="378" y="415" on="1"/>
        <pt x="373" y="407" on="1"/>
      </contour>
    </TTGlyph>
    <TTGlyph name="backslash" xMin="76" yMin="-184" xMax="347" yMax="730">
      <contour>
        <pt x="347" y="-184" on="1"/>
        <pt x="322" y="-119" on="1"/>
        <pt x="76" y="730" on="1"/>
        <pt x="99" y="665" on="1"/>
      </contour>
    </TTGlyph>
    <TTGlyph name="bar" xMin="76" yMin="-161" xMax="77" yMax="661">
      <contour>
        <pt x="76" y="-161" on="1"/>
        <pt x="76" y="661" on="1"/>
        <pt x="77" y="661" on="1"/>
        <pt x="77" y="-161" on="1"/>
      </contour>
    </TTGlyph>
    <TTGlyph name="braceleft" xMin="31" yMin="-233" xMax="325" yMax="733">
      <contour>
        <pt x="314" y="-233" on="1"/>
        <pt x="212" y="-233" on="0"/>
        <pt x="129" y="-132" on="0"/>
        <pt x="129" y="-13" on="1"/>
        <pt x="129" y="107" on="1"/>
        <pt x="129" y="166" on="0"/>
        <pt x="116" y="224" on="0"/>
        <pt x="73" y="244" on="0"/>
        <pt x="31" y="244" on="1"/>
        <pt x="31" y="253" on="1"/>
        <pt x="73" y="253" on="0"/>
        <pt x="116" y="271" on="0"/>
        <pt x="129" y="326" on="0"/>
        <pt x="129" y="381" on="1"/>
        <pt x="129" y="513" on="1"/>
        <pt x="129" y="632" on="0"/>
        <pt x="212" y="733" on="0"/>
        <pt x="314" y="733" on="1"/>
        <pt x="325" y="733" on="1"/>
        <pt x="325" y="723" on="1"/>
        <pt x="255" y="723" on="0"/>
        <pt x="174" y="685" on="0"/>
        <pt x="139" y="593" on="0"/>
        <pt x="139" y="513" on="1"/>
        <pt x="139" y="381" on="1"/>
        <pt x="139" y="315" on="0"/>
        <pt x="117" y="255" on="0"/>
        <pt x="77" y="248" on="1"/>
        <pt x="117" y="241" on="0"/>
        <pt x="139" y="178" on="0"/>
        <pt x="139" y="107" on="1"/>
        <pt x="139" y="-13" on="1"/>
        <pt x="139" y="-94" on="0"/>
        <pt x="175" y="-185" on="0"/>
        <pt x="256" y="-223" on="0"/>
        <pt x="325" y="-223" on="1"/>
        <pt x="325" y="-233" on="1"/>
      </contour>
    </TTGlyph>
    <TTGlyph name="braceright" xMin="68" yMin="-233" xMax="362" yMax="733">
      <contour>
        <pt x="68" y="-233" on="1"/>
        <pt x="68" y="-223" on="1"/>
        <pt x="137" y="-223" on="0"/>
        <pt x="218" y="-185" on="0"/>
        <pt x="254" y="-94" on="0"/>
        <pt x="254" y="-13" on="1"/>
        <pt x="254" y="107" on="1"/>
        <pt x="254" y="178" on="0"/>
        <pt x="276" y="241" on="0"/>
        <pt x="316" y="248" on="1"/>
        <pt x="276" y="255" on="0"/>
        <pt x="254" y="315" on="0"/>
        <pt x="254" y="381" on="1"/>
        <pt x="254" y="513" on="1"/>
        <pt x="254" y="593" on="0"/>
        <pt x="219" y="685" on="0"/>
        <pt x="138" y="723" on="0"/>
        <pt x="68" y="723" on="1"/>
        <pt x="68" y="733" on="1"/>
        <pt x="79" y="733" on="1"/>
        <pt x="181" y="733" on="0"/>
        <pt x="264" y="632" on="0"/>
        <pt x="264" y="513" on="1"/>
        <pt x="264" y="381" on="1"/>
        <pt x="264" y="326" on="0"/>
        <pt x="277" y="271" on="0"/>
        <pt x="319" y="253" on="0"/>
        <pt x="362" y="253" on="1"/>
        <pt x="362" y="244" on="1"/>
        <pt x="319" y="244" on="0"/>
        <pt x="277" y="224" on="0"/>
        <pt x="264" y="166" on="0"/>
        <pt x="264" y="107" on="1"/>
        <pt x="264" y="-13" on="1"/>
        <pt x="264" y="-132" on="0"/>
        <pt x="181" y="-233" on="0"/>
        <pt x="79" y="-233" on="1"/>
      </contour>
    </TTGlyph>
    <TTGlyph name="bracketleft" xMin="69" yMin="-233" xMax="191" yMax="733">
      <contour>
        <pt x="69" y="-233" on="1"/>
        <pt x="69" y="733" on="1"/>
        <pt x="191" y="733" on="1"/>
        <pt x="191" y="723" on="1"/>
        <pt x="79" y="723" on="1"/>
        <pt x="79" y="-223" on="1"/>
        <pt x="191" y="-223" on="1"/>
        <pt x="191" y="-233" on="1"/>
      </contour>
    </TTGlyph>
    <TTGlyph name="bracketright" xMin="68" yMin="-233" xMax="190" yMax="733">
      <contour>
        <pt x="68" y="-233" on="1"/>
        <pt x="68" y="-223" on="1"/>
        <pt x="180" y="-223" on="1"/>
        <pt x="180" y="723" on="1"/>
        <pt x="68" y="723" on="1"/>
        <pt x="68" y="733" on="1"/>
        <pt x="190" y="733" on="1"/>
        <pt x="190" y="-233" on="1"/>
      </contour>
    </TTGlyph>
    <TTGlyph name="bullet" xMin="51" yMin="235" xMax="148" yMax="333">
      <contour>
        <pt x="99" y="235" on="1"/>
        <pt x="79" y="235" on="0"/>
        <pt x="51" y="261" on="0"/>
        <pt x="51" y="284" on="1"/>
        <pt x="51" y="304" on="0"/>
        <pt x="77" y="333" on="0"/>
        <pt x="99" y="333" on="1"/>
        <pt x="122" y="333" on="0"/>
        <pt x="148" y="304" on="0"/>
        <pt x="148" y="284" on="1"/>
        <pt x="148" y="261" on="0"/>
        <pt x="119" y="235" on="0"/>
      </contour>
    </TTGlyph>
    <TTGlyph name="colon" xMin="68" yMin="-4" xMax="97" yMax="449">
      <contour>
        <pt x="83" y="419" on="1"/>
        <pt x="68" y="419" on="0"/>
        <pt x="68" y="434" on="1"/>
        <pt x="68" y="449" on="0"/>
        <pt x="83" y="449" on="1"/>
        <pt x="97" y="449" on="0"/>
        <pt x="97" y="434" on="1"/>
        <pt x="97" y="419" on="0"/>
      </contour>
      <contour>
        <pt x="83" y="-4" on="1"/>
        <pt x="68" y="-4" on="0"/>
        <pt x="68" y="10" on="1"/>
        <pt x="68" y="25" on="0"/>
        <pt x="83" y="25" on="1"/>
        <pt x="97" y="25" on="0"/>
        <pt x="97" y="10" on="1"/>
        <pt x="97" y="-4" on="0"/>
      </contour>
    </TTGlyph>
    <TTGlyph name="comma" xMin="37" yMin="-118" xMax="99" yMax="88">
      <contour>
        <pt x="37" y="-118" on="1"/>
        <pt x="89" y="88" on="1"/>
        <pt x="99" y="88" on="1"/>
        <pt x="46" y="-118" on="1"/>
      </contour>
    </TTGlyph>
    <TTGlyph name="copyright" xMin="74" yMin="-65" xMax="782" yMax="635">
      <contour>
        <pt x="423" y="-65" on="1"/>
        <pt x="352" y="-65" on="0"/>
        <pt x="226" y="-10" on="0"/>
        <pt x="129" y="87" on="0"/>
        <pt x="74" y="214" on="0"/>
        <pt x="74" y="285" on="1"/>
        <pt x="74" y="356" on="0"/>
        <pt x="129" y="483" on="0"/>
        <pt x="226" y="580" on="0"/>
        <pt x="352" y="635" on="0"/>
        <pt x="423" y="635" on="1"/>
        <pt x="496" y="635" on="0"/>
        <pt x="626" y="580" on="0"/>
        <pt x="726" y="483" on="0"/>
        <pt x="782" y="356" on="0"/>
        <pt x="782" y="285" on="1"/>
        <pt x="782" y="214" on="0"/>
        <pt x="726" y="87" on="0"/>
        <pt x="626" y="-10" on="0"/>
        <pt x="496" y="-65" on="0"/>
      </contour>
      <contour>
        <pt x="423" y="-55" on="1"/>
        <pt x="495" y="-55" on="0"/>
        <pt x="621" y="-2" on="0"/>
        <pt x="717" y="93" on="0"/>
        <pt x="772" y="216" on="0"/>
        <pt x="772" y="285" on="1"/>
        <pt x="772" y="354" on="0"/>
        <pt x="717" y="477" on="0"/>
        <pt x="621" y="572" on="0"/>
        <pt x="495" y="625" on="0"/>
        <pt x="423" y="625" on="1"/>
        <pt x="354" y="625" on="0"/>
        <pt x="231" y="572" on="0"/>
        <pt x="137" y="477" on="0"/>
        <pt x="84" y="354" on="0"/>
        <pt x="84" y="285" on="1"/>
        <pt x="84" y="216" on="0"/>
        <pt x="137" y="93" on="0"/>
        <pt x="231" y="-2" on="0"/>
        <pt x="354" y="-55" on="0"/>
      </contour>
      <contour>
        <pt x="427" y="84" on="1"/>
        <pt x="370" y="84" on="0"/>
        <pt x="279" y="137" on="0"/>
        <pt x="225" y="228" on="0"/>
        <pt x="225" y="285" on="1"/>
        <pt x="225" y="341" on="0"/>
        <pt x="279" y="433" on="0"/>
        <pt x="371" y="487" on="0"/>
        <pt x="427" y="487" on="1"/>
        <pt x="483" y="487" on="0"/>
        <pt x="578" y="431" on="0"/>
        <pt x="603" y="385" on="1"/>
        <pt x="595" y="380" on="1"/>
        <pt x="571" y="424" on="0"/>
        <pt x="480" y="477" on="0"/>
        <pt x="427" y="477" on="1"/>
        <pt x="373" y="477" on="0"/>
        <pt x="286" y="426" on="0"/>
        <pt x="235" y="340" on="0"/>
        <pt x="235" y="285" on="1"/>
        <pt x="235" y="231" on="0"/>
        <pt x="286" y="145" on="0"/>
        <pt x="373" y="94" on="0"/>
        <pt x="427" y="94" on="1"/>
        <pt x="481" y="94" on="0"/>
        <pt x="574" y="150" on="0"/>
        <pt x="597" y="197" on="1"/>
        <pt x="606" y="192" on="1"/>
        <pt x="581" y="143" on="0"/>
        <pt x="484" y="84" on="0"/>
      </contour>
    </TTGlyph>
    <TTGlyph name="degree" xMin="73" yMin="447" xMax="303" yMax="677">
      <contour>
        <pt x="188" y="447" on="1"/>
        <pt x="140" y="447" on="0"/>
        <pt x="73" y="514" on="0"/>
        <pt x="73" y="562" on="1"/>
        <pt x="73" y="594" on="0"/>
        <pt x="104" y="646" on="0"/>
        <pt x="156" y="677" on="0"/>
        <pt x="188" y="677" on="1"/>
        <pt x="237" y="677" on="0"/>
        <pt x="303" y="610" on="0"/>
        <pt x="303" y="562" on="1"/>
        <pt x="303" y="530" on="0"/>
        <pt x="272" y="478" on="0"/>
        <pt x="220" y="447" on="0"/>
      </contour>
      <contour>
        <pt x="188" y="456" on="1"/>
        <pt x="232" y="456" on="0"/>
        <pt x="294" y="518" on="0"/>
        <pt x="294" y="562" on="1"/>
        <pt x="294" y="606" on="0"/>
        <pt x="232" y="668" on="0"/>
        <pt x="188" y="668" on="1"/>
        <pt x="144" y="668" on="0"/>
        <pt x="82" y="606" on="0"/>
        <pt x="82" y="562" on="1"/>
        <pt x="82" y="518" on="0"/>
        <pt x="144" y="456" on="0"/>
      </contour>
    </TTGlyph>
    <TTGlyph name="divide" xMin="80" yMin="122" xMax="441" yMax="461">
      <contour>
        <pt x="260" y="433" on="1"/>
        <pt x="246" y="433" on="0"/>
        <pt x="246" y="447" on="1"/>
        <pt x="246" y="461" on="0"/>
        <pt x="260" y="461" on="1"/>
        <pt x="274" y="461" on="0"/>
        <pt x="274" y="447" on="1"/>
        <pt x="274" y="433" on="0"/>
      </contour>
      <contour>
        <pt x="80" y="282" on="1"/>
        <pt x="80" y="291" on="1"/>
        <pt x="441" y="291" on="1"/>
        <pt x="441" y="282" on="1"/>
      </contour>
      <contour>
        <pt x="260" y="122" on="1"/>
        <pt x="246" y="122" on="0"/>
        <pt x="246" y="136" on="1"/>
        <pt x="246" y="150" on="0"/>
        <pt x="260" y="150" on="1"/>
        <pt x="274" y="150" on="0"/>
        <pt x="274" y="136" on="1"/>
        <pt x="274" y="122" on="0"/>
      </contour>
    </TTGlyph>
    <TTGlyph name="dollar" xMin="84" yMin="-102" xMax="516" yMax="730">
      <contour>
        <pt x="323" y="-11" on="1"/>
        <pt x="320" y="-11" on="0"/>
        <pt x="317" y="-11" on="1"/>
        <pt x="317" y="-102" on="1"/>
        <pt x="307" y="-102" on="1"/>
        <pt x="307" y="-11" on="1"/>
        <pt x="234" y="-9" on="0"/>
        <pt x="132" y="31" on="0"/>
        <pt x="84" y="74" on="1"/>
        <pt x="92" y="82" on="1"/>
        <pt x="137" y="40" on="0"/>
        <pt x="235" y="1" on="0"/>
        <pt x="307" y="-1" on="1"/>
        <pt x="307" y="321" on="1"/>
        <pt x="304" y="322" on="0"/>
        <pt x="299" y="323" on="1"/>
        <pt x="249" y="339" on="0"/>
        <pt x="158" y="374" on="0"/>
        <pt x="100" y="432" on="0"/>
        <pt x="100" y="480" on="1"/>
        <pt x="100" y="520" on="0"/>
        <pt x="147" y="596" on="0"/>
        <pt x="237" y="645" on="0"/>
        <pt x="301" y="645" on="1"/>
        <pt x="304" y="645" on="0"/>
        <pt x="307" y="645" on="1"/>
        <pt x="307" y="730" on="1"/>
        <pt x="317" y="730" on="1"/>
        <pt x="317" y="644" on="1"/>
        <pt x="372" y="642" on="0"/>
        <pt x="463" y="604" on="0"/>
        <pt x="505" y="569" on="1"/>
        <pt x="497" y="562" on="1"/>
        <pt x="457" y="596" on="0"/>
        <pt x="370" y="632" on="0"/>
        <pt x="317" y="635" on="1"/>
        <pt x="317" y="329" on="1"/>
        <pt x="367" y="314" on="0"/>
        <pt x="458" y="275" on="0"/>
        <pt x="516" y="209" on="0"/>
        <pt x="516" y="155" on="1"/>
        <pt x="516" y="107" on="0"/>
        <pt x="468" y="32" on="0"/>
        <pt x="380" y="-11" on="0"/>
      </contour>
      <contour>
        <pt x="300" y="334" on="1"/>
        <pt x="304" y="333" on="0"/>
        <pt x="307" y="332" on="1"/>
        <pt x="307" y="635" on="1"/>
        <pt x="304" y="635" on="0"/>
        <pt x="301" y="635" on="1"/>
        <pt x="240" y="635" on="0"/>
        <pt x="154" y="589" on="0"/>
        <pt x="110" y="518" on="0"/>
        <pt x="109" y="480" on="1"/>
        <pt x="109" y="435" on="0"/>
        <pt x="164" y="382" on="0"/>
        <pt x="251" y="349" on="0"/>
      </contour>
      <contour>
        <pt x="507" y="155" on="1"/>
        <pt x="507" y="205" on="0"/>
        <pt x="452" y="266" on="0"/>
        <pt x="366" y="304" on="0"/>
        <pt x="317" y="318" on="1"/>
        <pt x="317" y="-1" on="1"/>
        <pt x="323" y="-1" on="1"/>
        <pt x="377" y="-1" on="0"/>
        <pt x="460" y="39" on="0"/>
        <pt x="507" y="110" on="0"/>
      </contour>
    </TTGlyph>
    <TTGlyph name="eight" xMin="64" yMin="-4" xMax="434" yMax="604">
      <contour>
        <pt x="249" y="-4" on="1"/>
        <pt x="195" y="-4" on="0"/>
        <pt x="112" y="38" on="0"/>
        <pt x="64" y="116" on="0"/>
        <pt x="64" y="168" on="1"/>
        <pt x="64" y="235" on="0"/>
        <pt x="149" y="327" on="0"/>
        <pt x="213" y="337" on="1"/>
        <pt x="180" y="343" on="0"/>
        <pt x="128" y="384" on="0"/>
        <pt x="99" y="440" on="0"/>
        <pt x="99" y="468" on="1"/>
        <pt x="99" y="501" on="0"/>
        <pt x="138" y="564" on="0"/>
        <pt x="206" y="604" on="0"/>
        <pt x="249" y="604" on="1"/>
        <pt x="291" y="604" on="0"/>
        <pt x="359" y="564" on="0"/>
        <pt x="400" y="501" on="0"/>
        <pt x="400" y="468" on="1"/>
        <pt x="400" y="440" on="0"/>
        <pt x="370" y="384" on="0"/>
        <pt x="318" y="343" on="0"/>
        <pt x="285" y="337" on="1"/>
        <pt x="327" y="330" on="0"/>
        <pt x="394" y="284" on="0"/>
        <pt x="434" y="213" on="0"/>
        <pt x="434" y="168" on="1"/>
        <pt x="434" y="116" on="0"/>
        <pt x="386" y="38" on="0"/>
        <pt x="302" y="-4" on="0"/>
      </contour>
      <contour>
        <pt x="249" y="341" on="1"/>
        <pt x="288" y="341" on="0"/>
        <pt x="352" y="378" on="0"/>
        <pt x="390" y="436" on="0"/>
        <pt x="390" y="468" on="1"/>
        <pt x="390" y="499" on="0"/>
        <pt x="352" y="557" on="0"/>
        <pt x="288" y="594" on="0"/>
        <pt x="249" y="594" on="1"/>
        <pt x="209" y="594" on="0"/>
        <pt x="146" y="557" on="0"/>
        <pt x="109" y="499" on="0"/>
        <pt x="109" y="468" on="1"/>
        <pt x="109" y="437" on="0"/>
        <pt x="145" y="378" on="0"/>
        <pt x="208" y="341" on="0"/>
      </contour>
      <contour>
        <pt x="249" y="7" on="1"/>
        <pt x="299" y="7" on="0"/>
        <pt x="378" y="46" on="0"/>
        <pt x="424" y="119" on="0"/>
        <pt x="424" y="168" on="1"/>
        <pt x="424" y="216" on="0"/>
        <pt x="376" y="289" on="0"/>
        <pt x="296" y="332" on="0"/>
        <pt x="249" y="332" on="1"/>
        <pt x="201" y="332" on="0"/>
        <pt x="122" y="289" on="0"/>
        <pt x="74" y="216" on="0"/>
        <pt x="74" y="168" on="1"/>
        <pt x="74" y="94" on="0"/>
        <pt x="173" y="7" on="0"/>
      </contour>
    </TTGlyph>
    <TTGlyph name="emdash" xMin="52" yMin="253" xMax="633" yMax="262">
      <contour>
        <pt x="52" y="253" on="1"/>
        <pt x="52" y="262" on="1"/>
        <pt x="633" y="262" on="1"/>
        <pt x="633" y="253" on="1"/>
      </contour>
    </TTGlyph>
    <TTGlyph name="endash" xMin="52" yMin="253" xMax="472" yMax="262">
      <contour>
        <pt x="52" y="253" on="1"/>
        <pt x="52" y="262" on="1"/>
        <pt x="472" y="262" on="1"/>
        <pt x="472" y="253" on="1"/>
      </contour>
    </TTGlyph>
    <TTGlyph name="equal" xMin="80" yMin="189" xMax="442" yMax="384">
      <contour>
        <pt x="80" y="374" on="1"/>
        <pt x="80" y="384" on="1"/>
        <pt x="442" y="384" on="1"/>
        <pt x="442" y="374" on="1"/>
      </contour>
      <contour>
        <pt x="80" y="189" on="1"/>
        <pt x="80" y="199" on="1"/>
        <pt x="442" y="199" on="1"/>
        <pt x="442" y="189" on="1"/>
      </contour>
    </TTGlyph>
    <TTGlyph name="exclam" xMin="70" yMin="-5" xMax="99" yMax="599">
      <contour>
        <pt x="80" y="113" on="1"/>
        <pt x="80" y="180" on="0"/>
        <pt x="79" y="317" on="0"/>
        <pt x="78" y="439" on="0"/>
        <pt x="78" y="482" on="1"/>
        <pt x="78" y="599" on="1"/>
        <pt x="89" y="599" on="1"/>
        <pt x="89" y="482" on="1"/>
        <pt x="89" y="439" on="0"/>
        <pt x="89" y="317" on="0"/>
        <pt x="89" y="180" on="0"/>
        <pt x="88" y="113" on="1"/>
      </contour>
      <contour>
        <pt x="80" y="0" on="1"/>
        <pt x="70" y="4" on="0"/>
        <pt x="74" y="15" on="1"/>
        <pt x="78" y="24" on="0"/>
        <pt x="88" y="20" on="1"/>
        <pt x="99" y="16" on="0"/>
        <pt x="94" y="6" on="1"/>
        <pt x="90" y="-5" on="0"/>
      </contour>
    </TTGlyph>
    <TTGlyph name="five" xMin="79" yMin="-15" xMax="453" yMax="602">
      <contour>
        <pt x="252" y="-15" on="1"/>
        <pt x="200" y="-15" on="0"/>
        <pt x="107" y="13" on="0"/>
        <pt x="79" y="31" on="1"/>
        <pt x="84" y="40" on="1"/>
        <pt x="108" y="22" on="0"/>
        <pt x="200" y="-5" on="0"/>
        <pt x="252" y="-5" on="1"/>
        <pt x="307" y="-5" on="0"/>
        <pt x="394" y="40" on="0"/>
        <pt x="443" y="121" on="0"/>
        <pt x="443" y="176" on="1"/>
        <pt x="443" y="234" on="0"/>
        <pt x="392" y="315" on="0"/>
        <pt x="306" y="358" on="0"/>
        <pt x="255" y="358" on="1"/>
        <pt x="213" y="358" on="0"/>
        <pt x="139" y="346" on="0"/>
        <pt x="94" y="335" on="1"/>
        <pt x="102" y="602" on="1"/>
        <pt x="429" y="602" on="1"/>
        <pt x="429" y="592" on="1"/>
        <pt x="112" y="592" on="1"/>
        <pt x="105" y="347" on="1"/>
        <pt x="126" y="353" on="0"/>
        <pt x="181" y="362" on="0"/>
        <pt x="235" y="368" on="0"/>
        <pt x="255" y="368" on="1"/>
        <pt x="309" y="368" on="0"/>
        <pt x="400" y="323" on="0"/>
        <pt x="453" y="237" on="0"/>
        <pt x="453" y="176" on="1"/>
        <pt x="453" y="118" on="0"/>
        <pt x="401" y="32" on="0"/>
        <pt x="310" y="-15" on="0"/>
      </contour>
    </TTGlyph>
    <TTGlyph name="four" xMin="31" yMin="0" xMax="460" yMax="602">
      <contour>
        <pt x="359" y="0" on="1"/>
        <pt x="359" y="175" on="1"/>
        <pt x="31" y="174" on="1"/>
        <pt x="31" y="183" on="1"/>
        <pt x="357" y="602" on="1"/>
        <pt x="369" y="602" on="1"/>
        <pt x="369" y="185" on="1"/>
        <pt x="460" y="185" on="1"/>
        <pt x="460" y="175" on="1"/>
        <pt x="369" y="175" on="1"/>
        <pt x="369" y="0" on="1"/>
      </contour>
      <contour>
        <pt x="45" y="185" on="1"/>
        <pt x="60" y="185" on="1"/>
        <pt x="359" y="185" on="1"/>
        <pt x="359" y="587" on="1"/>
      </contour>
    </TTGlyph>
    <TTGlyph name="greater" xMin="88" yMin="78" xMax="509" yMax="492">
      <contour>
        <pt x="90" y="78" on="1"/>
        <pt x="88" y="86" on="1"/>
        <pt x="500" y="287" on="1"/>
        <pt x="88" y="484" on="1"/>
        <pt x="90" y="492" on="1"/>
        <pt x="509" y="294" on="1"/>
        <pt x="509" y="280" on="1"/>
      </contour>
    </TTGlyph>
    <TTGlyph name="hyphen" xMin="71" yMin="253" xMax="441" yMax="262">
      <contour>
        <pt x="71" y="262" on="1"/>
        <pt x="441" y="262" on="1"/>
        <pt x="441" y="253" on="1"/>
        <pt x="71" y="253" on="1"/>
      </contour>
    </TTGlyph>
    <TTGlyph name="less" xMin="88" yMin="78" xMax="509" yMax="492">
      <contour>
        <pt x="507" y="78" on="1"/>
        <pt x="88" y="280" on="1"/>
        <pt x="88" y="294" on="1"/>
        <pt x="507" y="492" on="1"/>
        <pt x="509" y="484" on="1"/>
        <pt x="97" y="287" on="1"/>
        <pt x="509" y="86" on="1"/>
      </contour>
    </TTGlyph>
    <TTGlyph name="minus" xMin="81" yMin="281" xMax="441" yMax="291">
      <contour>
        <pt x="81" y="286" on="1"/>
        <pt x="106" y="291" on="1"/>
        <pt x="441" y="286" on="1"/>
        <pt x="415" y="281" on="1"/>
      </contour>
    </TTGlyph>
    <TTGlyph name="multiply" xMin="73" yMin="145" xMax="372" yMax="442">
      <contour>
        <pt x="80" y="145" on="1"/>
        <pt x="73" y="152" on="1"/>
        <pt x="215" y="294" on="1"/>
        <pt x="73" y="435" on="1"/>
        <pt x="80" y="442" on="1"/>
        <pt x="222" y="301" on="1"/>
        <pt x="365" y="442" on="1"/>
        <pt x="372" y="435" on="1"/>
        <pt x="229" y="294" on="1"/>
        <pt x="372" y="152" on="1"/>
        <pt x="365" y="145" on="1"/>
        <pt x="222" y="287" on="1"/>
      </contour>
    </TTGlyph>
    <TTGlyph name="nine" xMin="76" yMin="-6" xMax="442" yMax="609">
      <contour>
        <pt x="195" y="-6" on="1"/>
        <pt x="188" y="1" on="1"/>
        <pt x="288" y="63" on="0"/>
        <pt x="415" y="245" on="0"/>
        <pt x="429" y="359" on="1"/>
        <pt x="414" y="328" on="0"/>
        <pt x="360" y="279" on="0"/>
        <pt x="293" y="251" on="0"/>
        <pt x="259" y="251" on="1"/>
        <pt x="207" y="251" on="0"/>
        <pt x="124" y="298" on="0"/>
        <pt x="76" y="378" on="0"/>
        <pt x="76" y="427" on="1"/>
        <pt x="76" y="477" on="0"/>
        <pt x="120" y="560" on="0"/>
        <pt x="201" y="609" on="0"/>
        <pt x="259" y="609" on="1"/>
        <pt x="309" y="609" on="0"/>
        <pt x="392" y="557" on="0"/>
        <pt x="442" y="471" on="0"/>
        <pt x="442" y="419" on="1"/>
        <pt x="442" y="290" on="0"/>
        <pt x="317" y="69" on="0"/>
      </contour>
      <contour>
        <pt x="259" y="261" on="1"/>
        <pt x="299" y="261" on="0"/>
        <pt x="379" y="302" on="0"/>
        <pt x="432" y="374" on="0"/>
        <pt x="432" y="419" on="1"/>
        <pt x="432" y="468" on="0"/>
        <pt x="385" y="550" on="0"/>
        <pt x="306" y="599" on="0"/>
        <pt x="259" y="599" on="1"/>
        <pt x="204" y="599" on="0"/>
        <pt x="127" y="553" on="0"/>
        <pt x="86" y="474" on="0"/>
        <pt x="86" y="427" on="1"/>
        <pt x="86" y="380" on="0"/>
        <pt x="132" y="305" on="0"/>
        <pt x="210" y="261" on="0"/>
      </contour>
    </TTGlyph>
    <TTGlyph name="notequal" xMin="80" yMin="82" xMax="442" yMax="489">
      <contour>
        <pt x="155" y="82" on="1"/>
        <pt x="207" y="189" on="1"/>
        <pt x="80" y="189" on="1"/>
        <pt x="80" y="199" on="1"/>
        <pt x="212" y="199" on="1"/>
        <pt x="297" y="374" on="1"/>
        <pt x="80" y="374" on="1"/>
        <pt x="80" y="384" on="1"/>
        <pt x="302" y="384" on="1"/>
        <pt x="353" y="489" on="1"/>
        <pt x="364" y="489" on="1"/>
        <pt x="312" y="384" on="1"/>
        <pt x="442" y="384" on="1"/>
        <pt x="442" y="374" on="1"/>
        <pt x="308" y="374" on="1"/>
        <pt x="222" y="199" on="1"/>
        <pt x="442" y="199" on="1"/>
        <pt x="442" y="189" on="1"/>
        <pt x="218" y="189" on="1"/>
        <pt x="166" y="82" on="1"/>
      </contour>
    </TTGlyph>
    <TTGlyph name="numbersign" xMin="62" yMin="-61" xMax="677" yMax="640">
      <contour>
        <pt x="62" y="162" on="1"/>
        <pt x="62" y="173" on="1"/>
        <pt x="228" y="173" on="1"/>
        <pt x="262" y="407" on="1"/>
        <pt x="62" y="407" on="1"/>
        <pt x="62" y="418" on="1"/>
        <pt x="263" y="418" on="1"/>
        <pt x="295" y="640" on="1"/>
        <pt x="304" y="640" on="1"/>
        <pt x="273" y="418" on="1"/>
        <pt x="509" y="418" on="1"/>
        <pt x="541" y="640" on="1"/>
        <pt x="550" y="640" on="1"/>
        <pt x="518" y="418" on="1"/>
        <pt x="677" y="418" on="1"/>
        <pt x="677" y="407" on="1"/>
        <pt x="517" y="407" on="1"/>
        <pt x="483" y="173" on="1"/>
        <pt x="677" y="173" on="1"/>
        <pt x="677" y="162" on="1"/>
        <pt x="481" y="162" on="1"/>
        <pt x="449" y="-61" on="1"/>
        <pt x="440" y="-61" on="1"/>
        <pt x="472" y="162" on="1"/>
        <pt x="236" y="162" on="1"/>
        <pt x="204" y="-61" on="1"/>
        <pt x="195" y="-61" on="1"/>
        <pt x="227" y="162" on="1"/>
      </contour>
      <contour>
        <pt x="238" y="173" on="1"/>
        <pt x="473" y="173" on="1"/>
        <pt x="507" y="407" on="1"/>
        <pt x="271" y="407" on="1"/>
      </contour>
    </TTGlyph>
    <TTGlyph name="one" xMin="68" yMin="0" xMax="261" yMax="608">
      <contour>
        <pt x="251" y="0" on="1"/>
        <pt x="251" y="591" on="1"/>
        <pt x="68" y="493" on="1"/>
        <pt x="68" y="504" on="1"/>
        <pt x="261" y="608" on="1"/>
        <pt x="261" y="0" on="1"/>
      </contour>
    </TTGlyph>
    <TTGlyph name="parenleft" xMin="50" yMin="-228" xMax="267" yMax="727">
      <contour>
        <pt x="256" y="-228" on="1"/>
        <pt x="207" y="-186" on="0"/>
        <pt x="112" y="-54" on="0"/>
        <pt x="50" y="130" on="0"/>
        <pt x="50" y="249" on="1"/>
        <pt x="50" y="369" on="0"/>
        <pt x="112" y="551" on="0"/>
        <pt x="206" y="683" on="0"/>
        <pt x="254" y="727" on="1"/>
        <pt x="265" y="722" on="1"/>
        <pt x="215" y="677" on="0"/>
        <pt x="122" y="546" on="0"/>
        <pt x="61" y="367" on="0"/>
        <pt x="61" y="249" on="1"/>
        <pt x="61" y="132" on="0"/>
        <pt x="121" y="-49" on="0"/>
        <pt x="216" y="-180" on="0"/>
        <pt x="267" y="-223" on="1"/>
      </contour>
    </TTGlyph>
    <TTGlyph name="parenright" xMin="50" yMin="-228" xMax="267" yMax="727">
      <contour>
        <pt x="60" y="-228" on="1"/>
        <pt x="50" y="-223" on="1"/>
        <pt x="101" y="-180" on="0"/>
        <pt x="195" y="-49" on="0"/>
        <pt x="256" y="132" on="0"/>
        <pt x="256" y="249" on="1"/>
        <pt x="256" y="367" on="0"/>
        <pt x="195" y="546" on="0"/>
        <pt x="101" y="677" on="0"/>
        <pt x="52" y="722" on="1"/>
        <pt x="62" y="727" on="1"/>
        <pt x="111" y="683" on="0"/>
        <pt x="205" y="551" on="0"/>
        <pt x="267" y="369" on="0"/>
        <pt x="267" y="249" on="1"/>
        <pt x="267" y="130" on="0"/>
        <pt x="205" y="-54" on="0"/>
        <pt x="110" y="-186" on="0"/>
      </contour>
    </TTGlyph>
    <TTGlyph name="percent" xMin="33" yMin="-26" xMax="814" yMax="620">
      <contour>
        <pt x="153" y="-26" on="1"/>
        <pt x="145" y="-18" on="1"/>
        <pt x="695" y="620" on="1"/>
        <pt x="703" y="614" on="1"/>
      </contour>
      <contour>
        <pt x="205" y="266" on="1"/>
        <pt x="158" y="266" on="0"/>
        <pt x="80" y="312" on="0"/>
        <pt x="33" y="390" on="0"/>
        <pt x="33" y="438" on="1"/>
        <pt x="33" y="485" on="0"/>
        <pt x="80" y="563" on="0"/>
        <pt x="158" y="610" on="0"/>
        <pt x="205" y="610" on="1"/>
        <pt x="252" y="610" on="0"/>
        <pt x="330" y="563" on="0"/>
        <pt x="377" y="485" on="0"/>
        <pt x="377" y="438" on="1"/>
        <pt x="377" y="390" on="0"/>
        <pt x="330" y="312" on="0"/>
        <pt x="252" y="266" on="0"/>
      </contour>
      <contour>
        <pt x="205" y="275" on="1"/>
        <pt x="250" y="275" on="0"/>
        <pt x="323" y="319" on="0"/>
        <pt x="367" y="392" on="0"/>
        <pt x="367" y="438" on="1"/>
        <pt x="367" y="483" on="0"/>
        <pt x="323" y="556" on="0"/>
        <pt x="250" y="600" on="0"/>
        <pt x="205" y="600" on="1"/>
        <pt x="160" y="600" on="0"/>
        <pt x="86" y="557" on="0"/>
        <pt x="43" y="483" on="0"/>
        <pt x="43" y="438" on="1"/>
        <pt x="43" y="392" on="0"/>
        <pt x="87" y="319" on="0"/>
        <pt x="160" y="275" on="0"/>
      </contour>
      <contour>
        <pt x="642" y="-19" on="1"/>
        <pt x="595" y="-19" on="0"/>
        <pt x="517" y="27" on="0"/>
        <pt x="470" y="105" on="0"/>
        <pt x="470" y="153" on="1"/>
        <pt x="470" y="201" on="0"/>
        <pt x="517" y="279" on="0"/>
        <pt x="595" y="325" on="0"/>
        <pt x="642" y="325" on="1"/>
        <pt x="690" y="325" on="0"/>
        <pt x="768" y="279" on="0"/>
        <pt x="814" y="201" on="0"/>
        <pt x="814" y="153" on="1"/>
        <pt x="814" y="106" on="0"/>
        <pt x="767" y="27" on="0"/>
        <pt x="689" y="-19" on="0"/>
      </contour>
      <contour>
        <pt x="642" y="-10" on="1"/>
        <pt x="687" y="-10" on="0"/>
        <pt x="761" y="34" on="0"/>
        <pt x="804" y="108" on="0"/>
        <pt x="804" y="153" on="1"/>
        <pt x="804" y="198" on="0"/>
        <pt x="761" y="272" on="0"/>
        <pt x="687" y="316" on="0"/>
        <pt x="642" y="316" on="1"/>
        <pt x="597" y="316" on="0"/>
        <pt x="523" y="272" on="0"/>
        <pt x="480" y="199" on="0"/>
        <pt x="480" y="153" on="1"/>
        <pt x="480" y="108" on="0"/>
        <pt x="524" y="34" on="0"/>
        <pt x="597" y="-10" on="0"/>
      </contour>
    </TTGlyph>
    <TTGlyph name="period" xMin="69" yMin="-4" xMax="98" yMax="25">
      <contour>
        <pt x="69" y="10" on="1"/>
        <pt x="69" y="25" on="0"/>
        <pt x="84" y="25" on="1"/>
        <pt x="98" y="25" on="0"/>
        <pt x="98" y="10" on="1"/>
        <pt x="98" y="-4" on="0"/>
        <pt x="84" y="-4" on="1"/>
        <pt x="69" y="-4" on="0"/>
      </contour>
    </TTGlyph>
    <TTGlyph name="periodcentered" xMin="69" yMin="270" xMax="98" yMax="299">
      <contour>
        <pt x="78" y="274" on="1"/>
        <pt x="69" y="279" on="0"/>
        <pt x="73" y="289" on="1"/>
        <pt x="77" y="299" on="0"/>
        <pt x="87" y="295" on="1"/>
        <pt x="98" y="291" on="0"/>
        <pt x="93" y="280" on="1"/>
        <pt x="89" y="270" on="0"/>
      </contour>
    </TTGlyph>
    <TTGlyph name="plus" xMin="81" yMin="279" xMax="441" yMax="452">
      <contour>
        <pt x="81" y="279" on="1"/>
        <pt x="81" y="289" on="1"/>
        <pt x="256" y="289" on="1"/>
        <pt x="256" y="452" on="1"/>
        <pt x="266" y="452" on="1"/>
        <pt x="266" y="289" on="1"/>
        <pt x="441" y="289" on="1"/>
        <pt x="441" y="279" on="1"/>
      </contour>
    </TTGlyph>
    <TTGlyph name="question" xMin="70" yMin="-4" xMax="478" yMax="621">
      <contour>
        <pt x="256" y="126" on="1"/>
        <pt x="256" y="135" on="1"/>
        <pt x="256" y="176" on="0"/>
        <pt x="299" y="238" on="0"/>
        <pt x="362" y="290" on="0"/>
        <pt x="425" y="342" on="0"/>
        <pt x="467" y="405" on="0"/>
        <pt x="467" y="447" on="1"/>
        <pt x="468" y="492" on="0"/>
        <pt x="417" y="566" on="0"/>
        <pt x="331" y="611" on="0"/>
        <pt x="281" y="611" on="1"/>
        <pt x="212" y="611" on="0"/>
        <pt x="105" y="537" on="0"/>
        <pt x="78" y="486" on="1"/>
        <pt x="70" y="490" on="1"/>
        <pt x="88" y="525" on="0"/>
        <pt x="150" y="585" on="0"/>
        <pt x="233" y="621" on="0"/>
        <pt x="281" y="621" on="1"/>
        <pt x="334" y="621" on="0"/>
        <pt x="424" y="574" on="0"/>
        <pt x="478" y="495" on="0"/>
        <pt x="478" y="447" on="1"/>
        <pt x="478" y="403" on="0"/>
        <pt x="435" y="337" on="0"/>
        <pt x="372" y="285" on="0"/>
        <pt x="308" y="234" on="0"/>
        <pt x="265" y="174" on="0"/>
        <pt x="265" y="135" on="1"/>
        <pt x="266" y="126" on="1"/>
      </contour>
      <contour>
        <pt x="263" y="-4" on="1"/>
        <pt x="248" y="-4" on="0"/>
        <pt x="248" y="10" on="1"/>
        <pt x="248" y="25" on="0"/>
        <pt x="263" y="25" on="1"/>
        <pt x="277" y="25" on="0"/>
        <pt x="277" y="10" on="1"/>
        <pt x="277" y="-4" on="0"/>
      </contour>
    </TTGlyph>
    <TTGlyph name="quotedbl" xMin="78" yMin="365" xMax="297" yMax="600">
      <contour>
        <pt x="214" y="365" on="1"/>
        <pt x="286" y="600" on="1"/>
        <pt x="297" y="600" on="1"/>
        <pt x="224" y="365" on="1"/>
      </contour>
      <contour>
        <pt x="78" y="365" on="1"/>
        <pt x="150" y="600" on="1"/>
        <pt x="161" y="600" on="1"/>
        <pt x="88" y="365" on="1"/>
      </contour>
    </TTGlyph>
    <TTGlyph name="quotesingle" xMin="78" yMin="365" xMax="161" yMax="600">
      <contour>
        <pt x="78" y="365" on="1"/>
        <pt x="150" y="600" on="1"/>
        <pt x="161" y="600" on="1"/>
        <pt x="87" y="365" on="1"/>
      </contour>
    </TTGlyph>
    <TTGlyph name="registered" xMin="98" yMin="205" xMax="493" yMax="599">
      <contour>
        <pt x="296" y="205" on="1"/>
        <pt x="241" y="205" on="0"/>
        <pt x="151" y="258" on="0"/>
        <pt x="98" y="348" on="0"/>
        <pt x="98" y="402" on="1"/>
        <pt x="98" y="456" on="0"/>
        <pt x="152" y="545" on="0"/>
        <pt x="241" y="599" on="0"/>
        <pt x="296" y="599" on="1"/>
        <pt x="350" y="599" on="0"/>
        <pt x="440" y="545" on="0"/>
        <pt x="493" y="456" on="0"/>
        <pt x="493" y="402" on="1"/>
        <pt x="493" y="348" on="0"/>
        <pt x="439" y="258" on="0"/>
        <pt x="349" y="205" on="0"/>
      </contour>
      <contour>
        <pt x="296" y="212" on="1"/>
        <pt x="348" y="212" on="0"/>
        <pt x="434" y="263" on="0"/>
        <pt x="485" y="349" on="0"/>
        <pt x="485" y="402" on="1"/>
        <pt x="485" y="454" on="0"/>
        <pt x="434" y="540" on="0"/>
        <pt x="348" y="592" on="0"/>
        <pt x="296" y="592" on="1"/>
        <pt x="243" y="592" on="0"/>
        <pt x="157" y="540" on="0"/>
        <pt x="106" y="454" on="0"/>
        <pt x="106" y="402" on="1"/>
        <pt x="106" y="350" on="0"/>
        <pt x="157" y="264" on="0"/>
        <pt x="243" y="212" on="0"/>
      </contour>
      <contour>
        <pt x="239" y="300" on="1"/>
        <pt x="239" y="503" on="1"/>
        <pt x="293" y="503" on="1"/>
        <pt x="328" y="503" on="0"/>
        <pt x="371" y="467" on="0"/>
        <pt x="371" y="438" on="1"/>
        <pt x="371" y="392" on="0"/>
        <pt x="315" y="382" on="1"/>
        <pt x="369" y="300" on="1"/>
        <pt x="361" y="300" on="1"/>
        <pt x="308" y="381" on="1"/>
        <pt x="247" y="381" on="1"/>
        <pt x="247" y="300" on="1"/>
      </contour>
      <contour>
        <pt x="247" y="388" on="1"/>
        <pt x="293" y="388" on="1"/>
        <pt x="326" y="387" on="0"/>
        <pt x="363" y="415" on="0"/>
        <pt x="363" y="438" on="1"/>
        <pt x="363" y="465" on="0"/>
        <pt x="325" y="496" on="0"/>
        <pt x="293" y="496" on="1"/>
        <pt x="247" y="496" on="1"/>
      </contour>
    </TTGlyph>
    <TTGlyph name="semicolon" xMin="37" yMin="-118" xMax="99" yMax="449">
      <contour>
        <pt x="83" y="419" on="1"/>
        <pt x="68" y="419" on="0"/>
        <pt x="68" y="434" on="1"/>
        <pt x="68" y="449" on="0"/>
        <pt x="83" y="449" on="1"/>
        <pt x="97" y="449" on="0"/>
        <pt x="97" y="434" on="1"/>
        <pt x="97" y="419" on="0"/>
      </contour>
      <contour>
        <pt x="37" y="-118" on="1"/>
        <pt x="89" y="125" on="1"/>
        <pt x="99" y="125" on="1"/>
        <pt x="46" y="-118" on="1"/>
      </contour>
    </TTGlyph>
    <TTGlyph name="seven" xMin="24" yMin="0" xMax="435" yMax="602">
      <contour>
        <pt x="177" y="0" on="1"/>
        <pt x="167" y="0" on="1"/>
        <pt x="420" y="592" on="1"/>
        <pt x="24" y="592" on="1"/>
        <pt x="24" y="602" on="1"/>
        <pt x="435" y="602" on="1"/>
      </contour>
    </TTGlyph>
    <TTGlyph name="six" xMin="76" yMin="-13" xMax="442" yMax="608">
      <contour>
        <pt x="76" y="177" on="1"/>
        <pt x="76" y="294" on="0"/>
        <pt x="191" y="509" on="0"/>
        <pt x="303" y="608" on="1"/>
        <pt x="310" y="600" on="1"/>
        <pt x="216" y="519" on="0"/>
        <pt x="106" y="336" on="0"/>
        <pt x="91" y="244" on="1"/>
        <pt x="112" y="288" on="0"/>
        <pt x="201" y="345" on="0"/>
        <pt x="258" y="345" on="1"/>
        <pt x="310" y="345" on="0"/>
        <pt x="394" y="298" on="0"/>
        <pt x="442" y="218" on="0"/>
        <pt x="442" y="168" on="1"/>
        <pt x="442" y="119" on="0"/>
        <pt x="398" y="36" on="0"/>
        <pt x="316" y="-13" on="0"/>
        <pt x="259" y="-13" on="1"/>
        <pt x="208" y="-13" on="0"/>
        <pt x="125" y="39" on="0"/>
        <pt x="76" y="125" on="0"/>
      </contour>
      <contour>
        <pt x="259" y="-3" on="1"/>
        <pt x="313" y="-3" on="0"/>
        <pt x="391" y="43" on="0"/>
        <pt x="432" y="121" on="0"/>
        <pt x="432" y="168" on="1"/>
        <pt x="432" y="215" on="0"/>
        <pt x="386" y="291" on="0"/>
        <pt x="307" y="335" on="0"/>
        <pt x="258" y="335" on="1"/>
        <pt x="211" y="335" on="0"/>
        <pt x="133" y="292" on="0"/>
        <pt x="86" y="220" on="0"/>
        <pt x="86" y="177" on="1"/>
        <pt x="86" y="128" on="0"/>
        <pt x="133" y="46" on="0"/>
        <pt x="211" y="-3" on="0"/>
      </contour>
    </TTGlyph>
    <TTGlyph name="slash" xMin="66" yMin="-184" xMax="348" yMax="730">
      <contour>
        <pt x="66" y="-184" on="1"/>
        <pt x="339" y="730" on="1"/>
        <pt x="348" y="730" on="1"/>
        <pt x="76" y="-184" on="1"/>
      </contour>
    </TTGlyph>
    <TTGlyph name="three" xMin="70" yMin="-4" xMax="472" yMax="602">
      <contour>
        <pt x="262" y="-4" on="1"/>
        <pt x="225" y="-4" on="0"/>
        <pt x="118" y="31" on="0"/>
        <pt x="70" y="58" on="1"/>
        <pt x="75" y="67" on="1"/>
        <pt x="121" y="41" on="0"/>
        <pt x="225" y="6" on="0"/>
        <pt x="262" y="6" on="1"/>
        <pt x="317" y="6" on="0"/>
        <pt x="408" y="56" on="0"/>
        <pt x="462" y="138" on="0"/>
        <pt x="462" y="188" on="1"/>
        <pt x="462" y="253" on="0"/>
        <pt x="347" y="345" on="0"/>
        <pt x="216" y="374" on="1"/>
        <pt x="423" y="571" on="1"/>
        <pt x="446" y="592" on="1"/>
        <pt x="83" y="592" on="1"/>
        <pt x="83" y="602" on="1"/>
        <pt x="458" y="602" on="1"/>
        <pt x="458" y="592" on="1"/>
        <pt x="235" y="381" on="1"/>
        <pt x="472" y="328" on="0"/>
        <pt x="472" y="188" on="1"/>
        <pt x="472" y="136" on="0"/>
        <pt x="415" y="48" on="0"/>
        <pt x="319" y="-4" on="0"/>
      </contour>
    </TTGlyph>
    <TTGlyph name="trademark" xMin="40" yMin="272" xMax="610" yMax="539">
      <contour>
        <pt x="153" y="272" on="1"/>
        <pt x="153" y="530" on="1"/>
        <pt x="40" y="530" on="1"/>
        <pt x="40" y="539" on="1"/>
        <pt x="276" y="539" on="1"/>
        <pt x="276" y="530" on="1"/>
        <pt x="162" y="530" on="1"/>
        <pt x="162" y="272" on="1"/>
      </contour>
      <contour>
        <pt x="327" y="272" on="1"/>
        <pt x="327" y="536" on="1"/>
        <pt x="335" y="536" on="1"/>
        <pt x="468" y="390" on="1"/>
        <pt x="601" y="536" on="1"/>
        <pt x="610" y="536" on="1"/>
        <pt x="610" y="272" on="1"/>
        <pt x="602" y="272" on="1"/>
        <pt x="602" y="524" on="1"/>
        <pt x="468" y="377" on="1"/>
        <pt x="335" y="523" on="1"/>
        <pt x="335" y="272" on="1"/>
      </contour>
    </TTGlyph>
    <TTGlyph name="two" xMin="53" yMin="0" xMax="481" yMax="608">
      <contour>
        <pt x="76" y="0" on="1"/>
        <pt x="76" y="11" on="1"/>
        <pt x="191" y="101" on="0"/>
        <pt x="356" y="239" on="0"/>
        <pt x="444" y="361" on="0"/>
        <pt x="444" y="428" on="1"/>
        <pt x="444" y="474" on="0"/>
        <pt x="399" y="551" on="0"/>
        <pt x="320" y="598" on="0"/>
        <pt x="268" y="598" on="1"/>
        <pt x="145" y="599" on="0"/>
        <pt x="60" y="484" on="1"/>
        <pt x="53" y="490" on="1"/>
        <pt x="97" y="548" on="0"/>
        <pt x="203" y="608" on="0"/>
        <pt x="268" y="608" on="1"/>
        <pt x="323" y="608" on="0"/>
        <pt x="406" y="559" on="0"/>
        <pt x="454" y="477" on="0"/>
        <pt x="454" y="428" on="1"/>
        <pt x="454" y="360" on="0"/>
        <pt x="368" y="237" on="0"/>
        <pt x="206" y="99" on="0"/>
        <pt x="92" y="10" on="1"/>
        <pt x="481" y="10" on="1"/>
        <pt x="481" y="0" on="1"/>
      </contour>
    </TTGlyph>
    <TTGlyph name="underscore" xMin="71" yMin="-1" xMax="448" yMax="9">
      <contour>
        <pt x="71" y="9" on="1"/>
        <pt x="448" y="9" on="1"/>
        <pt x="448" y="-1" on="1"/>
        <pt x="71" y="-1" on="1"/>
      </contour>
    </TTGlyph>
    <TTGlyph name="uni05B0" xMin="-16" yMin="-237" xMax="15" yMax="-90">
      <contour>
        <pt x="0" y="-122" on="1"/>
        <pt x="-16" y="-122" on="0"/>
        <pt x="-16" y="-106" on="1"/>
        <pt x="-16" y="-90" on="0"/>
        <pt x="0" y="-90" on="1"/>
        <pt x="15" y="-90" on="0"/>
        <pt x="15" y="-106" on="1"/>
        <pt x="15" y="-122" on="0"/>
      </contour>
      <contour>
        <pt x="0" y="-237" on="1"/>
        <pt x="-16" y="-237" on="0"/>
        <pt x="-16" y="-221" on="1"/>
        <pt x="-16" y="-205" on="0"/>
        <pt x="0" y="-205" on="1"/>
        <pt x="15" y="-205" on="0"/>
        <pt x="15" y="-221" on="1"/>
        <pt x="15" y="-237" on="0"/>
      </contour>
    </TTGlyph>
    <TTGlyph name="uni05B1" xMin="-131" yMin="-237" xMax="131" yMax="-90">
      <contour>
        <pt x="116" y="-122" on="1"/>
        <pt x="100" y="-122" on="0"/>
        <pt x="100" y="-106" on="1"/>
        <pt x="100" y="-90" on="0"/>
        <pt x="116" y="-90" on="1"/>
        <pt x="131" y="-90" on="0"/>
        <pt x="131" y="-106" on="1"/>
        <pt x="131" y="-122" on="0"/>
      </contour>
      <contour>
        <pt x="-115" y="-122" on="1"/>
        <pt x="-131" y="-122" on="0"/>
        <pt x="-131" y="-106" on="1"/>
        <pt x="-131" y="-90" on="0"/>
        <pt x="-115" y="-90" on="1"/>
        <pt x="-100" y="-90" on="0"/>
        <pt x="-100" y="-106" on="1"/>
        <pt x="-100" y="-122" on="0"/>
      </contour>
      <contour>
        <pt x="-1" y="-122" on="1"/>
        <pt x="-17" y="-122" on="0"/>
        <pt x="-17" y="-106" on="1"/>
        <pt x="-17" y="-90" on="0"/>
        <pt x="-1" y="-90" on="1"/>
        <pt x="14" y="-90" on="0"/>
        <pt x="14" y="-106" on="1"/>
        <pt x="14" y="-122" on="0"/>
      </contour>
      <contour>
        <pt x="116" y="-237" on="1"/>
        <pt x="100" y="-237" on="0"/>
        <pt x="100" y="-221" on="1"/>
        <pt x="100" y="-205" on="0"/>
        <pt x="116" y="-205" on="1"/>
        <pt x="131" y="-205" on="0"/>
        <pt x="131" y="-221" on="1"/>
        <pt x="131" y="-237" on="0"/>
      </contour>
      <contour>
        <pt x="-58" y="-237" on="1"/>
        <pt x="-74" y="-237" on="0"/>
        <pt x="-74" y="-221" on="1"/>
        <pt x="-74" y="-205" on="0"/>
        <pt x="-58" y="-205" on="1"/>
        <pt x="-43" y="-205" on="0"/>
        <pt x="-43" y="-221" on="1"/>
        <pt x="-43" y="-237" on="0"/>
      </contour>
    </TTGlyph>
    <TTGlyph name="uni05B2" xMin="-150" yMin="-237" xMax="128" yMax="-90">
      <contour>
        <pt x="113" y="-122" on="1"/>
        <pt x="97" y="-122" on="0"/>
        <pt x="97" y="-106" on="1"/>
        <pt x="97" y="-90" on="0"/>
        <pt x="113" y="-90" on="1"/>
        <pt x="128" y="-90" on="0"/>
        <pt x="128" y="-106" on="1"/>
        <pt x="128" y="-122" on="0"/>
      </contour>
      <contour>
        <pt x="-150" y="-108" on="1"/>
        <pt x="-150" y="-99" on="1"/>
        <pt x="26" y="-99" on="1"/>
        <pt x="26" y="-108" on="1"/>
      </contour>
      <contour>
        <pt x="113" y="-237" on="1"/>
        <pt x="97" y="-237" on="0"/>
        <pt x="97" y="-221" on="1"/>
        <pt x="97" y="-205" on="0"/>
        <pt x="113" y="-205" on="1"/>
        <pt x="128" y="-205" on="0"/>
        <pt x="128" y="-221" on="1"/>
        <pt x="128" y="-237" on="0"/>
      </contour>
    </TTGlyph>
    <TTGlyph name="uni05B3" xMin="-168" yMin="-237" xMax="110" yMax="-90">
      <contour>
        <pt x="95" y="-122" on="1"/>
        <pt x="79" y="-122" on="0"/>
        <pt x="79" y="-106" on="1"/>
        <pt x="79" y="-90" on="0"/>
        <pt x="95" y="-90" on="1"/>
        <pt x="110" y="-90" on="0"/>
        <pt x="110" y="-106" on="1"/>
        <pt x="110" y="-122" on="0"/>
      </contour>
      <contour>
        <pt x="-85" y="-229" on="1"/>
        <pt x="-85" y="-108" on="1"/>
        <pt x="-168" y="-108" on="1"/>
        <pt x="-168" y="-99" on="1"/>
        <pt x="8" y="-99" on="1"/>
        <pt x="8" y="-108" on="1"/>
        <pt x="-76" y="-108" on="1"/>
        <pt x="-76" y="-229" on="1"/>
      </contour>
      <contour>
        <pt x="95" y="-237" on="1"/>
        <pt x="79" y="-237" on="0"/>
        <pt x="79" y="-221" on="1"/>
        <pt x="79" y="-205" on="0"/>
        <pt x="95" y="-205" on="1"/>
        <pt x="110" y="-205" on="0"/>
        <pt x="110" y="-221" on="1"/>
        <pt x="110" y="-237" on="0"/>
      </contour>
    </TTGlyph>
    <TTGlyph name="uni05B4" xMin="-13" yMin="-119" xMax="12" yMax="-94">
      <contour>
        <pt x="0" y="-119" on="1"/>
        <pt x="-13" y="-119" on="0"/>
        <pt x="-13" y="-106" on="1"/>
        <pt x="-13" y="-94" on="0"/>
        <pt x="0" y="-94" on="1"/>
        <pt x="12" y="-94" on="0"/>
        <pt x="12" y="-106" on="1"/>
        <pt x="12" y="-119" on="0"/>
      </contour>
    </TTGlyph>
    <TTGlyph name="uni05B5" xMin="-93" yMin="-122" xMax="92" yMax="-90">
      <contour>
        <pt x="-77" y="-122" on="1"/>
        <pt x="-93" y="-122" on="0"/>
        <pt x="-93" y="-106" on="1"/>
        <pt x="-93" y="-90" on="0"/>
        <pt x="-77" y="-90" on="1"/>
        <pt x="-62" y="-90" on="0"/>
        <pt x="-62" y="-106" on="1"/>
        <pt x="-62" y="-122" on="0"/>
      </contour>
      <contour>
        <pt x="77" y="-122" on="1"/>
        <pt x="61" y="-122" on="0"/>
        <pt x="61" y="-106" on="1"/>
        <pt x="61" y="-90" on="0"/>
        <pt x="77" y="-90" on="1"/>
        <pt x="92" y="-90" on="0"/>
        <pt x="92" y="-106" on="1"/>
        <pt x="92" y="-122" on="0"/>
      </contour>
    </TTGlyph>
    <TTGlyph name="uni05B6" xMin="-93" yMin="-237" xMax="92" yMax="-90">
      <contour>
        <pt x="-77" y="-122" on="1"/>
        <pt x="-93" y="-122" on="0"/>
        <pt x="-93" y="-106" on="1"/>
        <pt x="-93" y="-90" on="0"/>
        <pt x="-77" y="-90" on="1"/>
        <pt x="-62" y="-90" on="0"/>
        <pt x="-62" y="-106" on="1"/>
        <pt x="-62" y="-122" on="0"/>
      </contour>
      <contour>
        <pt x="77" y="-122" on="1"/>
        <pt x="61" y="-122" on="0"/>
        <pt x="61" y="-106" on="1"/>
        <pt x="61" y="-90" on="0"/>
        <pt x="77" y="-90" on="1"/>
        <pt x="92" y="-90" on="0"/>
        <pt x="92" y="-106" on="1"/>
        <pt x="92" y="-122" on="0"/>
      </contour>
      <contour>
        <pt x="0" y="-237" on="1"/>
        <pt x="-16" y="-237" on="0"/>
        <pt x="-16" y="-221" on="1"/>
        <pt x="-16" y="-205" on="0"/>
        <pt x="0" y="-205" on="1"/>
        <pt x="15" y="-205" on="0"/>
        <pt x="15" y="-221" on="1"/>
        <pt x="15" y="-237" on="0"/>
      </contour>
    </TTGlyph>
    <TTGlyph name="uni05B7" xMin="-117" yMin="-108" xMax="119" yMax="-99">
      <contour>
        <pt x="-117" y="-108" on="1"/>
        <pt x="-117" y="-99" on="1"/>
        <pt x="119" y="-99" on="1"/>
        <pt x="119" y="-108" on="1"/>
      </contour>
    </TTGlyph>
    <TTGlyph name="uni05B8" xMin="-117" yMin="-247" xMax="119" yMax="-99">
      <contour>
        <pt x="-117" y="-108" on="1"/>
        <pt x="-117" y="-99" on="1"/>
        <pt x="119" y="-99" on="1"/>
        <pt x="119" y="-108" on="1"/>
        <pt x="5" y="-108" on="1"/>
        <pt x="4" y="-247" on="1"/>
        <pt x="-5" y="-247" on="1"/>
        <pt x="-4" y="-108" on="1"/>
      </contour>
    </TTGlyph>
    <TTGlyph name="uni05B8.narrow" xMin="-96" yMin="-247" xMax="98" yMax="-99">
      <contour>
        <pt x="-96" y="-108" on="1"/>
        <pt x="-96" y="-99" on="1"/>
        <pt x="98" y="-99" on="1"/>
        <pt x="98" y="-108" on="1"/>
        <pt x="5" y="-108" on="1"/>
        <pt x="4" y="-247" on="1"/>
        <pt x="-5" y="-247" on="1"/>
        <pt x="-4" y="-108" on="1"/>
      </contour>
    </TTGlyph>
    <TTGlyph name="uni05B9" xMin="-53" yMin="654" xMax="-22" yMax="686">
      <contour>
        <pt x="-37" y="654" on="1"/>
        <pt x="-53" y="654" on="0"/>
        <pt x="-53" y="670" on="1"/>
        <pt x="-53" y="686" on="0"/>
        <pt x="-37" y="686" on="1"/>
        <pt x="-22" y="686" on="0"/>
        <pt x="-22" y="670" on="1"/>
        <pt x="-22" y="654" on="0"/>
      </contour>
    </TTGlyph>
    <TTGlyph name="uni05BA" xMin="-53" yMin="654" xMax="-22" yMax="686">
      <contour>
        <pt x="-37" y="654" on="1"/>
        <pt x="-53" y="654" on="0"/>
        <pt x="-53" y="670" on="1"/>
        <pt x="-53" y="686" on="0"/>
        <pt x="-37" y="686" on="1"/>
        <pt x="-22" y="686" on="0"/>
        <pt x="-22" y="670" on="1"/>
        <pt x="-22" y="654" on="0"/>
      </contour>
    </TTGlyph>
    <TTGlyph name="uni05BB" xMin="-16" yMin="-318" xMax="149" yMax="-90">
      <contour>
        <pt x="0" y="-122" on="1"/>
        <pt x="-16" y="-122" on="0"/>
        <pt x="-16" y="-106" on="1"/>
        <pt x="-16" y="-90" on="0"/>
        <pt x="0" y="-90" on="1"/>
        <pt x="15" y="-90" on="0"/>
        <pt x="15" y="-106" on="1"/>
        <pt x="15" y="-122" on="0"/>
      </contour>
      <contour>
        <pt x="67" y="-220" on="1"/>
        <pt x="51" y="-220" on="0"/>
        <pt x="51" y="-204" on="1"/>
        <pt x="51" y="-188" on="0"/>
        <pt x="67" y="-188" on="1"/>
        <pt x="82" y="-188" on="0"/>
        <pt x="82" y="-204" on="1"/>
        <pt x="82" y="-220" on="0"/>
      </contour>
      <contour>
        <pt x="134" y="-318" on="1"/>
        <pt x="118" y="-318" on="0"/>
        <pt x="118" y="-302" on="1"/>
        <pt x="118" y="-286" on="0"/>
        <pt x="134" y="-286" on="1"/>
        <pt x="149" y="-286" on="0"/>
        <pt x="149" y="-302" on="1"/>
        <pt x="149" y="-318" on="0"/>
      </contour>
    </TTGlyph>
    <TTGlyph name="uni05BC" xMin="33" yMin="199" xMax="62" yMax="229">
      <contour>
        <pt x="48" y="199" on="1"/>
        <pt x="33" y="199" on="0"/>
        <pt x="33" y="214" on="1"/>
        <pt x="33" y="229" on="0"/>
        <pt x="48" y="229" on="1"/>
        <pt x="62" y="229" on="0"/>
        <pt x="62" y="214" on="1"/>
        <pt x="62" y="199" on="0"/>
      </contour>
    </TTGlyph>
    <TTGlyph name="uni05BE" xMin="71" yMin="546" xMax="285" yMax="556">
      <contour>
        <pt x="71" y="556" on="1"/>
        <pt x="285" y="556" on="1"/>
        <pt x="285" y="546" on="1"/>
        <pt x="71" y="546" on="1"/>
      </contour>
    </TTGlyph>
    <TTGlyph name="uni05BF" xMin="-117" yMin="641" xMax="119" yMax="650">
      <contour>
        <pt x="-117" y="641" on="1"/>
        <pt x="-117" y="650" on="1"/>
        <pt x="119" y="650" on="1"/>
        <pt x="119" y="641" on="1"/>
      </contour>
    </TTGlyph>
    <TTGlyph name="uni05C1" xMin="-88" yMin="654" xMax="-57" yMax="686">
      <contour>
        <pt x="-72" y="654" on="1"/>
        <pt x="-88" y="654" on="0"/>
        <pt x="-88" y="670" on="1"/>
        <pt x="-88" y="686" on="0"/>
        <pt x="-72" y="686" on="1"/>
        <pt x="-57" y="686" on="0"/>
        <pt x="-57" y="670" on="1"/>
        <pt x="-57" y="654" on="0"/>
      </contour>
    </TTGlyph>
    <TTGlyph name="uni05C2" xMin="73" yMin="654" xMax="104" yMax="686">
      <contour>
        <pt x="89" y="654" on="1"/>
        <pt x="73" y="654" on="0"/>
        <pt x="73" y="670" on="1"/>
        <pt x="73" y="686" on="0"/>
        <pt x="89" y="686" on="1"/>
        <pt x="104" y="686" on="0"/>
        <pt x="104" y="670" on="1"/>
        <pt x="104" y="654" on="0"/>
      </contour>
    </TTGlyph>
    <TTGlyph name="uni05D0" xMin="83" yMin="-2" xMax="607" yMax="562">
      <contour>
        <pt x="112" y="0" on="1"/>
        <pt x="112" y="80" on="0"/>
        <pt x="132" y="244" on="0"/>
        <pt x="178" y="385" on="0"/>
        <pt x="218" y="429" on="1"/>
        <pt x="188" y="457" on="0"/>
        <pt x="121" y="520" on="0"/>
        <pt x="83" y="556" on="1"/>
        <pt x="89" y="562" on="1"/>
        <pt x="163" y="494" on="0"/>
        <pt x="279" y="387" on="0"/>
        <pt x="370" y="298" on="0"/>
        <pt x="446" y="218" on="0"/>
        <pt x="480" y="177" on="1"/>
        <pt x="514" y="227" on="0"/>
        <pt x="555" y="358" on="0"/>
        <pt x="573" y="495" on="0"/>
        <pt x="573" y="556" on="1"/>
        <pt x="583" y="556" on="1"/>
        <pt x="583" y="491" on="0"/>
        <pt x="563" y="348" on="0"/>
        <pt x="520" y="218" on="0"/>
        <pt x="486" y="170" on="1"/>
        <pt x="516" y="133" on="0"/>
        <pt x="575" y="52" on="0"/>
        <pt x="607" y="4" on="1"/>
        <pt x="599" y="-2" on="1"/>
        <pt x="556" y="63" on="0"/>
        <pt x="477" y="166" on="0"/>
        <pt x="393" y="260" on="0"/>
        <pt x="292" y="361" on="0"/>
        <pt x="226" y="423" on="1"/>
        <pt x="185" y="379" on="0"/>
        <pt x="140" y="239" on="0"/>
        <pt x="122" y="77" on="0"/>
        <pt x="122" y="0" on="1"/>
      </contour>
    </TTGlyph>
    <TTGlyph name="uni05D0.forDagesh" xMin="83" yMin="-2" xMax="607" yMax="562">
      <contour>
        <pt x="112" y="0" on="1"/>
        <pt x="112" y="80" on="0"/>
        <pt x="132" y="244" on="0"/>
        <pt x="178" y="385" on="0"/>
        <pt x="218" y="429" on="1"/>
        <pt x="188" y="457" on="0"/>
        <pt x="121" y="520" on="0"/>
        <pt x="83" y="556" on="1"/>
        <pt x="89" y="562" on="1"/>
        <pt x="163" y="494" on="0"/>
        <pt x="279" y="387" on="0"/>
        <pt x="370" y="298" on="0"/>
        <pt x="446" y="218" on="0"/>
        <pt x="480" y="177" on="1"/>
        <pt x="514" y="227" on="0"/>
        <pt x="555" y="358" on="0"/>
        <pt x="573" y="495" on="0"/>
        <pt x="573" y="556" on="1"/>
        <pt x="583" y="556" on="1"/>
        <pt x="583" y="491" on="0"/>
        <pt x="563" y="348" on="0"/>
        <pt x="520" y="218" on="0"/>
        <pt x="486" y="170" on="1"/>
        <pt x="516" y="133" on="0"/>
        <pt x="575" y="52" on="0"/>
        <pt x="607" y="4" on="1"/>
        <pt x="599" y="-2" on="1"/>
        <pt x="556" y="63" on="0"/>
        <pt x="477" y="166" on="0"/>
        <pt x="393" y="260" on="0"/>
        <pt x="292" y="361" on="0"/>
        <pt x="226" y="423" on="1"/>
        <pt x="185" y="379" on="0"/>
        <pt x="140" y="239" on="0"/>
        <pt x="122" y="77" on="0"/>
        <pt x="122" y="0" on="1"/>
      </contour>
    </TTGlyph>
    <TTGlyph name="uni05D1" xMin="75" yMin="0" xMax="524" yMax="561">
      <contour>
        <pt x="75" y="0" on="1"/>
        <pt x="75" y="10" on="1"/>
        <pt x="446" y="10" on="1"/>
        <pt x="446" y="335" on="1"/>
        <pt x="446" y="449" on="0"/>
        <pt x="351" y="551" on="0"/>
        <pt x="245" y="551" on="1"/>
        <pt x="75" y="551" on="1"/>
        <pt x="75" y="561" on="1"/>
        <pt x="245" y="561" on="1"/>
        <pt x="360" y="561" on="0"/>
        <pt x="456" y="448" on="0"/>
        <pt x="456" y="335" on="1"/>
        <pt x="456" y="10" on="1"/>
        <pt x="524" y="10" on="1"/>
        <pt x="524" y="0" on="1"/>
      </contour>
    </TTGlyph>
    <TTGlyph name="uni05D2" xMin="60" yMin="-1" xMax="259" yMax="561">
      <contour>
        <pt x="62" y="-1" on="1"/>
        <pt x="60" y="10" on="1"/>
        <pt x="85" y="15" on="0"/>
        <pt x="136" y="62" on="0"/>
        <pt x="184" y="131" on="0"/>
        <pt x="224" y="204" on="0"/>
        <pt x="239" y="235" on="1"/>
        <pt x="239" y="248" on="1"/>
        <pt x="236" y="317" on="0"/>
        <pt x="228" y="422" on="0"/>
        <pt x="203" y="496" on="0"/>
        <pt x="146" y="542" on="0"/>
        <pt x="94" y="551" on="1"/>
        <pt x="96" y="561" on="1"/>
        <pt x="149" y="551" on="0"/>
        <pt x="209" y="504" on="0"/>
        <pt x="237" y="428" on="0"/>
        <pt x="246" y="320" on="0"/>
        <pt x="249" y="249" on="1"/>
        <pt x="259" y="0" on="1"/>
        <pt x="249" y="0" on="1"/>
        <pt x="240" y="219" on="1"/>
        <pt x="226" y="189" on="0"/>
        <pt x="186" y="117" on="0"/>
        <pt x="139" y="52" on="0"/>
        <pt x="87" y="5" on="0"/>
      </contour>
    </TTGlyph>
    <TTGlyph name="uni05D3" xMin="45" yMin="4" xMax="468" yMax="560">
      <contour>
        <pt x="393" y="4" on="1"/>
        <pt x="393" y="550" on="1"/>
        <pt x="45" y="550" on="1"/>
        <pt x="45" y="560" on="1"/>
        <pt x="468" y="560" on="1"/>
        <pt x="468" y="550" on="1"/>
        <pt x="403" y="550" on="1"/>
        <pt x="403" y="4" on="1"/>
      </contour>
    </TTGlyph>
    <TTGlyph name="uni05D4" xMin="94" yMin="0" xMax="525" yMax="557">
      <contour>
        <pt x="514" y="0" on="1"/>
        <pt x="515" y="331" on="1"/>
        <pt x="515" y="447" on="0"/>
        <pt x="428" y="547" on="0"/>
        <pt x="322" y="547" on="1"/>
        <pt x="94" y="547" on="1"/>
        <pt x="94" y="557" on="1"/>
        <pt x="322" y="557" on="1"/>
        <pt x="433" y="557" on="0"/>
        <pt x="525" y="448" on="0"/>
        <pt x="525" y="331" on="1"/>
        <pt x="524" y="0" on="1"/>
      </contour>
      <contour>
        <pt x="97" y="0" on="1"/>
        <pt x="98" y="339" on="1"/>
        <pt x="108" y="339" on="1"/>
        <pt x="107" y="0" on="1"/>
      </contour>
    </TTGlyph>
    <TTGlyph name="uni05D5" xMin="77" yMin="-1" xMax="199" yMax="563">
      <contour>
        <pt x="189" y="-1" on="1"/>
        <pt x="189" y="388" on="1"/>
        <pt x="189" y="457" on="0"/>
        <pt x="135" y="537" on="0"/>
        <pt x="77" y="553" on="1"/>
        <pt x="79" y="563" on="1"/>
        <pt x="141" y="546" on="0"/>
        <pt x="199" y="461" on="0"/>
        <pt x="199" y="388" on="1"/>
        <pt x="199" y="-1" on="1"/>
      </contour>
    </TTGlyph>
    <TTGlyph name="uni05D6" xMin="71" yMin="-1" xMax="264" yMax="560">
      <contour>
        <pt x="204" y="-1" on="1"/>
        <pt x="190" y="46" on="0"/>
        <pt x="162" y="197" on="0"/>
        <pt x="159" y="279" on="1"/>
        <pt x="155" y="358" on="0"/>
        <pt x="168" y="505" on="0"/>
        <pt x="178" y="550" on="1"/>
        <pt x="71" y="550" on="1"/>
        <pt x="71" y="560" on="1"/>
        <pt x="264" y="560" on="1"/>
        <pt x="264" y="550" on="1"/>
        <pt x="186" y="550" on="1"/>
        <pt x="187" y="549" on="1"/>
        <pt x="178" y="508" on="0"/>
        <pt x="165" y="365" on="0"/>
        <pt x="169" y="279" on="1"/>
        <pt x="174" y="191" on="0"/>
        <pt x="201" y="48" on="0"/>
        <pt x="213" y="4" on="1"/>
      </contour>
    </TTGlyph>
    <TTGlyph name="uni05D7" xMin="94" yMin="0" xMax="528" yMax="561">
      <contour>
        <pt x="94" y="0" on="1"/>
        <pt x="94" y="561" on="1"/>
        <pt x="325" y="561" on="1"/>
        <pt x="435" y="561" on="0"/>
        <pt x="528" y="453" on="0"/>
        <pt x="528" y="335" on="1"/>
        <pt x="528" y="0" on="1"/>
        <pt x="518" y="0" on="1"/>
        <pt x="518" y="335" on="1"/>
        <pt x="518" y="448" on="0"/>
        <pt x="433" y="551" on="0"/>
        <pt x="325" y="551" on="1"/>
        <pt x="104" y="551" on="1"/>
        <pt x="104" y="0" on="1"/>
      </contour>
    </TTGlyph>
    <TTGlyph name="uni05D8" xMin="94" yMin="-11" xMax="585" yMax="559">
      <contour>
        <pt x="328" y="-11" on="1"/>
        <pt x="261" y="-11" on="0"/>
        <pt x="155" y="67" on="0"/>
        <pt x="94" y="219" on="0"/>
        <pt x="94" y="328" on="1"/>
        <pt x="94" y="556" on="1"/>
        <pt x="104" y="556" on="1"/>
        <pt x="104" y="328" on="1"/>
        <pt x="104" y="237" on="0"/>
        <pt x="156" y="87" on="0"/>
        <pt x="256" y="-1" on="0"/>
        <pt x="328" y="-1" on="1"/>
        <pt x="454" y="-1" on="0"/>
        <pt x="575" y="150" on="0"/>
        <pt x="575" y="277" on="1"/>
        <pt x="575" y="354" on="0"/>
        <pt x="543" y="478" on="0"/>
        <pt x="475" y="549" on="0"/>
        <pt x="420" y="549" on="1"/>
        <pt x="392" y="549" on="0"/>
        <pt x="322" y="526" on="0"/>
        <pt x="298" y="512" on="1"/>
        <pt x="293" y="520" on="1"/>
        <pt x="318" y="535" on="0"/>
        <pt x="392" y="559" on="0"/>
        <pt x="420" y="559" on="1"/>
        <pt x="479" y="559" on="0"/>
        <pt x="552" y="483" on="0"/>
        <pt x="585" y="355" on="0"/>
        <pt x="585" y="277" on="1"/>
        <pt x="585" y="143" on="0"/>
        <pt x="457" y="-11" on="0"/>
      </contour>
    </TTGlyph>
    <TTGlyph name="uni05D9" xMin="72" yMin="237" xMax="267" yMax="565">
      <contour>
        <pt x="243" y="237" on="1"/>
        <pt x="233" y="239" on="1"/>
        <pt x="242" y="275" on="0"/>
        <pt x="253" y="324" on="0"/>
        <pt x="257" y="366" on="0"/>
        <pt x="257" y="391" on="1"/>
        <pt x="257" y="466" on="0"/>
        <pt x="156" y="555" on="0"/>
        <pt x="72" y="555" on="1"/>
        <pt x="72" y="565" on="1"/>
        <pt x="160" y="565" on="0"/>
        <pt x="267" y="473" on="0"/>
        <pt x="267" y="391" on="1"/>
        <pt x="267" y="366" on="0"/>
        <pt x="262" y="323" on="0"/>
        <pt x="252" y="273" on="0"/>
      </contour>
    </TTGlyph>
    <TTGlyph name="uni05DA" xMin="90" yMin="-125" xMax="475" yMax="558">
      <contour>
        <pt x="400" y="-125" on="1"/>
        <pt x="400" y="547" on="1"/>
        <pt x="90" y="547" on="1"/>
        <pt x="90" y="557" on="1"/>
        <pt x="400" y="557" on="1"/>
        <pt x="400" y="558" on="1"/>
        <pt x="410" y="558" on="1"/>
        <pt x="410" y="557" on="1"/>
        <pt x="475" y="557" on="1"/>
        <pt x="475" y="547" on="1"/>
        <pt x="410" y="547" on="1"/>
        <pt x="410" y="-125" on="1"/>
      </contour>
    </TTGlyph>
    <TTGlyph name="uni05DB" xMin="69" yMin="0" xMax="449" yMax="561">
      <contour>
        <pt x="69" y="0" on="1"/>
        <pt x="69" y="10" on="1"/>
        <pt x="222" y="10" on="1"/>
        <pt x="298" y="10" on="0"/>
        <pt x="394" y="78" on="0"/>
        <pt x="439" y="200" on="0"/>
        <pt x="439" y="280" on="1"/>
        <pt x="439" y="414" on="0"/>
        <pt x="314" y="551" on="0"/>
        <pt x="180" y="551" on="1"/>
        <pt x="69" y="551" on="1"/>
        <pt x="69" y="561" on="1"/>
        <pt x="180" y="561" on="1"/>
        <pt x="319" y="561" on="0"/>
        <pt x="449" y="417" on="0"/>
        <pt x="449" y="280" on="1"/>
        <pt x="449" y="153" on="0"/>
        <pt x="338" y="0" on="0"/>
        <pt x="222" y="0" on="1"/>
      </contour>
    </TTGlyph>
    <TTGlyph name="uni05DC" xMin="78" yMin="0" xMax="477" yMax="730">
      <contour>
        <pt x="203" y="0" on="1"/>
        <pt x="200" y="9" on="1"/>
        <pt x="280" y="42" on="0"/>
        <pt x="400" y="150" on="0"/>
        <pt x="467" y="277" on="0"/>
        <pt x="467" y="338" on="1"/>
        <pt x="467" y="415" on="0"/>
        <pt x="411" y="506" on="0"/>
        <pt x="305" y="548" on="0"/>
        <pt x="231" y="551" on="1"/>
        <pt x="78" y="546" on="1"/>
        <pt x="78" y="730" on="1"/>
        <pt x="88" y="730" on="1"/>
        <pt x="88" y="556" on="1"/>
        <pt x="233" y="561" on="1"/>
        <pt x="349" y="557" on="0"/>
        <pt x="477" y="456" on="0"/>
        <pt x="477" y="339" on="1"/>
        <pt x="477" y="274" on="0"/>
        <pt x="408" y="143" on="0"/>
        <pt x="285" y="33" on="0"/>
      </contour>
    </TTGlyph>
    <TTGlyph name="uni05DD" xMin="94" yMin="0" xMax="540" yMax="555">
      <contour>
        <pt x="94" y="0" on="1"/>
        <pt x="94" y="555" on="1"/>
        <pt x="336" y="555" on="1"/>
        <pt x="442" y="555" on="0"/>
        <pt x="540" y="456" on="0"/>
        <pt x="540" y="355" on="1"/>
        <pt x="540" y="0" on="1"/>
      </contour>
      <contour>
        <pt x="104" y="10" on="1"/>
        <pt x="530" y="10" on="1"/>
        <pt x="530" y="355" on="1"/>
        <pt x="530" y="453" on="0"/>
        <pt x="436" y="545" on="0"/>
        <pt x="336" y="545" on="1"/>
        <pt x="104" y="545" on="1"/>
      </contour>
    </TTGlyph>
    <TTGlyph name="uni05DE" xMin="70" yMin="-1" xMax="606" yMax="571">
      <contour>
        <pt x="388" y="-1" on="1"/>
        <pt x="371" y="-1" on="0"/>
        <pt x="345" y="1" on="0"/>
        <pt x="334" y="3" on="1"/>
        <pt x="335" y="13" on="1"/>
        <pt x="358" y="10" on="0"/>
        <pt x="389" y="10" on="1"/>
        <pt x="459" y="10" on="0"/>
        <pt x="551" y="84" on="0"/>
        <pt x="596" y="210" on="0"/>
        <pt x="596" y="289" on="1"/>
        <pt x="596" y="426" on="0"/>
        <pt x="498" y="561" on="0"/>
        <pt x="395" y="561" on="1"/>
        <pt x="335" y="561" on="0"/>
        <pt x="247" y="493" on="0"/>
        <pt x="185" y="381" on="0"/>
        <pt x="144" y="248" on="0"/>
        <pt x="120" y="116" on="0"/>
        <pt x="114" y="63" on="1"/>
        <pt x="107" y="-1" on="1"/>
        <pt x="97" y="-1" on="1"/>
        <pt x="105" y="65" on="1"/>
        <pt x="111" y="117" on="0"/>
        <pt x="133" y="244" on="0"/>
        <pt x="171" y="373" on="0"/>
        <pt x="200" y="428" on="1"/>
        <pt x="177" y="459" on="0"/>
        <pt x="106" y="528" on="0"/>
        <pt x="70" y="552" on="1"/>
        <pt x="75" y="561" on="1"/>
        <pt x="111" y="536" on="0"/>
        <pt x="182" y="468" on="0"/>
        <pt x="205" y="436" on="1"/>
        <pt x="238" y="495" on="0"/>
        <pt x="331" y="571" on="0"/>
        <pt x="395" y="571" on="1"/>
        <pt x="505" y="571" on="0"/>
        <pt x="606" y="428" on="0"/>
        <pt x="606" y="289" on="1"/>
        <pt x="606" y="206" on="0"/>
        <pt x="559" y="76" on="0"/>
        <pt x="463" y="0" on="0"/>
      </contour>
    </TTGlyph>
    <TTGlyph name="uni05DF" xMin="78" yMin="-125" xMax="188" yMax="561">
      <contour>
        <pt x="178" y="-125" on="1"/>
        <pt x="178" y="372" on="1"/>
        <pt x="178" y="442" on="0"/>
        <pt x="133" y="533" on="0"/>
        <pt x="78" y="551" on="1"/>
        <pt x="81" y="561" on="1"/>
        <pt x="140" y="543" on="0"/>
        <pt x="188" y="443" on="0"/>
        <pt x="188" y="372" on="1"/>
        <pt x="188" y="-125" on="1"/>
      </contour>
    </TTGlyph>
    <TTGlyph name="uni05E0" xMin="80" yMin="0" xMax="284" yMax="561">
      <contour>
        <pt x="80" y="0" on="1"/>
        <pt x="80" y="10" on="1"/>
        <pt x="274" y="10" on="1"/>
        <pt x="274" y="256" on="1"/>
        <pt x="274" y="376" on="0"/>
        <pt x="191" y="532" on="0"/>
        <pt x="99" y="551" on="1"/>
        <pt x="101" y="561" on="1"/>
        <pt x="195" y="543" on="0"/>
        <pt x="284" y="383" on="0"/>
        <pt x="284" y="256" on="1"/>
        <pt x="284" y="0" on="1"/>
      </contour>
    </TTGlyph>
    <TTGlyph name="uni05E1" xMin="71" yMin="-4" xMax="590" yMax="561">
      <contour>
        <pt x="336" y="-4" on="1"/>
        <pt x="279" y="-4" on="0"/>
        <pt x="188" y="53" on="0"/>
        <pt x="125" y="148" on="0"/>
        <pt x="91" y="262" on="0"/>
        <pt x="91" y="319" on="1"/>
        <pt x="91" y="353" on="0"/>
        <pt x="109" y="438" on="0"/>
        <pt x="138" y="521" on="0"/>
        <pt x="155" y="551" on="1"/>
        <pt x="71" y="551" on="1"/>
        <pt x="71" y="561" on="1"/>
        <pt x="358" y="561" on="1"/>
        <pt x="425" y="561" on="0"/>
        <pt x="530" y="500" on="0"/>
        <pt x="590" y="397" on="0"/>
        <pt x="590" y="332" on="1"/>
        <pt x="590" y="237" on="0"/>
        <pt x="529" y="85" on="0"/>
        <pt x="415" y="-4" on="0"/>
      </contour>
      <contour>
        <pt x="101" y="319" on="1"/>
        <pt x="101" y="263" on="0"/>
        <pt x="134" y="152" on="0"/>
        <pt x="195" y="61" on="0"/>
        <pt x="282" y="6" on="0"/>
        <pt x="336" y="6" on="1"/>
        <pt x="413" y="6" on="0"/>
        <pt x="522" y="93" on="0"/>
        <pt x="580" y="241" on="0"/>
        <pt x="580" y="332" on="1"/>
        <pt x="580" y="393" on="0"/>
        <pt x="522" y="492" on="0"/>
        <pt x="421" y="551" on="0"/>
        <pt x="358" y="551" on="1"/>
        <pt x="165" y="551" on="1"/>
        <pt x="147" y="520" on="0"/>
        <pt x="118" y="438" on="0"/>
        <pt x="101" y="354" on="0"/>
      </contour>
    </TTGlyph>
    <TTGlyph name="uni05E2" xMin="69" yMin="-46" xMax="480" yMax="560">
      <contour>
        <pt x="72" y="-46" on="1"/>
        <pt x="69" y="-36" on="1"/>
        <pt x="111" y="-24" on="0"/>
        <pt x="192" y="9" on="0"/>
        <pt x="230" y="30" on="1"/>
        <pt x="201" y="140" on="0"/>
        <pt x="158" y="298" on="0"/>
        <pt x="122" y="416" on="0"/>
        <pt x="89" y="510" on="0"/>
        <pt x="71" y="556" on="1"/>
        <pt x="81" y="560" on="1"/>
        <pt x="99" y="513" on="0"/>
        <pt x="132" y="417" on="0"/>
        <pt x="168" y="299" on="0"/>
        <pt x="211" y="143" on="0"/>
        <pt x="239" y="35" on="1"/>
        <pt x="288" y="64" on="0"/>
        <pt x="370" y="135" on="0"/>
        <pt x="397" y="176" on="1"/>
        <pt x="446" y="250" on="0"/>
        <pt x="470" y="436" on="0"/>
        <pt x="469" y="558" on="1"/>
        <pt x="479" y="558" on="1"/>
        <pt x="480" y="433" on="0"/>
        <pt x="454" y="247" on="0"/>
        <pt x="405" y="171" on="1"/>
        <pt x="371" y="118" on="0"/>
        <pt x="265" y="35" on="0"/>
        <pt x="138" y="-27" on="0"/>
      </contour>
    </TTGlyph>
    <TTGlyph name="uni05E3" xMin="70" yMin="-125" xMax="473" yMax="564">
      <contour>
        <pt x="463" y="-125" on="1"/>
        <pt x="463" y="310" on="1"/>
        <pt x="463" y="425" on="0"/>
        <pt x="358" y="554" on="0"/>
        <pt x="248" y="554" on="1"/>
        <pt x="197" y="554" on="0"/>
        <pt x="122" y="507" on="0"/>
        <pt x="80" y="427" on="0"/>
        <pt x="80" y="378" on="1"/>
        <pt x="80" y="336" on="0"/>
        <pt x="119" y="266" on="0"/>
        <pt x="183" y="224" on="0"/>
        <pt x="221" y="224" on="1"/>
        <pt x="220" y="214" on="1"/>
        <pt x="178" y="214" on="0"/>
        <pt x="110" y="259" on="0"/>
        <pt x="70" y="334" on="0"/>
        <pt x="70" y="378" on="1"/>
        <pt x="70" y="431" on="0"/>
        <pt x="116" y="515" on="0"/>
        <pt x="196" y="564" on="0"/>
        <pt x="248" y="564" on="1"/>
        <pt x="359" y="564" on="0"/>
        <pt x="473" y="434" on="0"/>
        <pt x="473" y="310" on="1"/>
        <pt x="473" y="-125" on="1"/>
      </contour>
    </TTGlyph>
    <TTGlyph name="uni05E4" xMin="70" yMin="-2" xMax="529" yMax="560">
      <contour>
        <pt x="299" y="-2" on="1"/>
        <pt x="244" y="-2" on="0"/>
        <pt x="157" y="18" on="0"/>
        <pt x="107" y="42" on="1"/>
        <pt x="110" y="51" on="1"/>
        <pt x="147" y="34" on="0"/>
        <pt x="229" y="8" on="0"/>
        <pt x="299" y="8" on="1"/>
        <pt x="367" y="8" on="0"/>
        <pt x="466" y="80" on="0"/>
        <pt x="519" y="204" on="0"/>
        <pt x="519" y="281" on="1"/>
        <pt x="519" y="404" on="0"/>
        <pt x="400" y="550" on="0"/>
        <pt x="284" y="550" on="1"/>
        <pt x="227" y="550" on="0"/>
        <pt x="135" y="510" on="0"/>
        <pt x="80" y="434" on="0"/>
        <pt x="80" y="381" on="1"/>
        <pt x="80" y="341" on="0"/>
        <pt x="128" y="285" on="0"/>
        <pt x="206" y="255" on="0"/>
        <pt x="251" y="255" on="1"/>
        <pt x="250" y="245" on="1"/>
        <pt x="205" y="245" on="0"/>
        <pt x="123" y="276" on="0"/>
        <pt x="70" y="336" on="0"/>
        <pt x="70" y="381" on="1"/>
        <pt x="70" y="435" on="0"/>
        <pt x="127" y="516" on="0"/>
        <pt x="223" y="560" on="0"/>
        <pt x="284" y="560" on="1"/>
        <pt x="403" y="560" on="0"/>
        <pt x="529" y="408" on="0"/>
        <pt x="529" y="281" on="1"/>
        <pt x="529" y="202" on="0"/>
        <pt x="474" y="73" on="0"/>
        <pt x="371" y="-2" on="0"/>
      </contour>
    </TTGlyph>
    <TTGlyph name="uni05E5" xMin="70" yMin="-125" xMax="378" yMax="563">
      <contour>
        <pt x="172" y="-125" on="1"/>
        <pt x="172" y="154" on="1"/>
        <pt x="172" y="269" on="0"/>
        <pt x="122" y="467" on="0"/>
        <pt x="70" y="558" on="1"/>
        <pt x="79" y="563" on="1"/>
        <pt x="170" y="403" on="0"/>
        <pt x="181" y="209" on="1"/>
        <pt x="238" y="229" on="0"/>
        <pt x="322" y="333" on="0"/>
        <pt x="368" y="477" on="0"/>
        <pt x="368" y="556" on="1"/>
        <pt x="378" y="556" on="1"/>
        <pt x="378" y="472" on="0"/>
        <pt x="329" y="324" on="0"/>
        <pt x="240" y="218" on="0"/>
        <pt x="181" y="198" on="1"/>
        <pt x="182" y="176" on="0"/>
        <pt x="182" y="154" on="1"/>
        <pt x="182" y="-125" on="1"/>
      </contour>
    </TTGlyph>
    <TTGlyph name="uni05E6" xMin="65" yMin="0" xMax="486" yMax="562">
      <contour>
        <pt x="99" y="0" on="1"/>
        <pt x="99" y="10" on="1"/>
        <pt x="459" y="10" on="1"/>
        <pt x="457" y="38" on="0"/>
        <pt x="407" y="112" on="0"/>
        <pt x="334" y="194" on="0"/>
        <pt x="297" y="234" on="1"/>
        <pt x="253" y="281" on="0"/>
        <pt x="173" y="374" on="0"/>
        <pt x="99" y="485" on="0"/>
        <pt x="65" y="557" on="1"/>
        <pt x="74" y="562" on="1"/>
        <pt x="107" y="490" on="0"/>
        <pt x="180" y="381" on="0"/>
        <pt x="260" y="288" on="0"/>
        <pt x="303" y="242" on="1"/>
        <pt x="336" y="263" on="0"/>
        <pt x="394" y="335" on="0"/>
        <pt x="440" y="424" on="0"/>
        <pt x="471" y="518" on="0"/>
        <pt x="477" y="561" on="1"/>
        <pt x="486" y="559" on="1"/>
        <pt x="480" y="514" on="0"/>
        <pt x="449" y="418" on="0"/>
        <pt x="402" y="328" on="0"/>
        <pt x="342" y="256" on="0"/>
        <pt x="309" y="235" on="1"/>
        <pt x="347" y="194" on="0"/>
        <pt x="421" y="110" on="0"/>
        <pt x="469" y="35" on="0"/>
        <pt x="469" y="6" on="1"/>
        <pt x="469" y="0" on="1"/>
      </contour>
    </TTGlyph>
    <TTGlyph name="uni05E7" xMin="94" yMin="-125" xMax="518" yMax="555">
      <contour>
        <pt x="294" y="-7" on="1"/>
        <pt x="291" y="3" on="1"/>
        <pt x="348" y="29" on="0"/>
        <pt x="447" y="125" on="0"/>
        <pt x="508" y="246" on="0"/>
        <pt x="508" y="308" on="1"/>
        <pt x="508" y="418" on="0"/>
        <pt x="390" y="545" on="0"/>
        <pt x="274" y="545" on="1"/>
        <pt x="94" y="545" on="1"/>
        <pt x="94" y="555" on="1"/>
        <pt x="274" y="555" on="1"/>
        <pt x="397" y="555" on="0"/>
        <pt x="518" y="420" on="0"/>
        <pt x="518" y="308" on="1"/>
        <pt x="518" y="243" on="0"/>
        <pt x="455" y="119" on="0"/>
        <pt x="353" y="20" on="0"/>
      </contour>
      <contour>
        <pt x="105" y="-125" on="1"/>
        <pt x="105" y="348" on="1"/>
        <pt x="115" y="348" on="1"/>
        <pt x="115" y="-125" on="1"/>
      </contour>
    </TTGlyph>
    <TTGlyph name="uni05E8" xMin="59" yMin="0" xMax="458" yMax="556">
      <contour>
        <pt x="448" y="0" on="1"/>
        <pt x="448" y="368" on="1"/>
        <pt x="448" y="451" on="0"/>
        <pt x="349" y="546" on="0"/>
        <pt x="269" y="546" on="1"/>
        <pt x="59" y="546" on="1"/>
        <pt x="59" y="556" on="1"/>
        <pt x="269" y="556" on="1"/>
        <pt x="357" y="556" on="0"/>
        <pt x="458" y="451" on="0"/>
        <pt x="458" y="368" on="1"/>
        <pt x="458" y="0" on="1"/>
      </contour>
    </TTGlyph>
    <TTGlyph name="uni05E9" xMin="75" yMin="-3" xMax="651" yMax="556">
      <contour>
        <pt x="365" y="-3" on="1"/>
        <pt x="296" y="-3" on="0"/>
        <pt x="188" y="79" on="0"/>
        <pt x="114" y="228" on="0"/>
        <pt x="75" y="433" on="0"/>
        <pt x="75" y="556" on="1"/>
        <pt x="85" y="556" on="1"/>
        <pt x="85" y="339" on="0"/>
        <pt x="142" y="197" on="1"/>
        <pt x="190" y="210" on="0"/>
        <pt x="274" y="279" on="0"/>
        <pt x="303" y="323" on="1"/>
        <pt x="371" y="425" on="0"/>
        <pt x="371" y="556" on="1"/>
        <pt x="381" y="556" on="1"/>
        <pt x="381" y="422" on="0"/>
        <pt x="311" y="317" on="1"/>
        <pt x="281" y="271" on="0"/>
        <pt x="192" y="199" on="0"/>
        <pt x="146" y="188" on="1"/>
        <pt x="182" y="102" on="0"/>
        <pt x="293" y="7" on="0"/>
        <pt x="365" y="7" on="1"/>
        <pt x="450" y="7" on="0"/>
        <pt x="567" y="137" on="0"/>
        <pt x="633" y="383" on="0"/>
        <pt x="641" y="556" on="1"/>
        <pt x="651" y="556" on="1"/>
        <pt x="639" y="290" on="0"/>
        <pt x="497" y="-2" on="0"/>
      </contour>
    </TTGlyph>
    <TTGlyph name="uni05E9.forDagesh" xMin="69" yMin="-3" xMax="644" yMax="556">
      <contour>
        <pt x="359" y="-3" on="1"/>
        <pt x="290" y="-3" on="0"/>
        <pt x="182" y="79" on="0"/>
        <pt x="108" y="228" on="0"/>
        <pt x="69" y="433" on="0"/>
        <pt x="69" y="556" on="1"/>
        <pt x="79" y="556" on="1"/>
        <pt x="79" y="339" on="0"/>
        <pt x="136" y="197" on="1"/>
        <pt x="184" y="210" on="0"/>
        <pt x="267" y="279" on="0"/>
        <pt x="296" y="323" on="1"/>
        <pt x="364" y="425" on="0"/>
        <pt x="364" y="556" on="1"/>
        <pt x="374" y="556" on="1"/>
        <pt x="374" y="422" on="0"/>
        <pt x="305" y="317" on="1"/>
        <pt x="274" y="271" on="0"/>
        <pt x="185" y="199" on="0"/>
        <pt x="139" y="188" on="1"/>
        <pt x="175" y="102" on="0"/>
        <pt x="286" y="7" on="0"/>
        <pt x="359" y="7" on="1"/>
        <pt x="444" y="7" on="0"/>
        <pt x="561" y="137" on="0"/>
        <pt x="626" y="383" on="0"/>
        <pt x="634" y="556" on="1"/>
        <pt x="644" y="556" on="1"/>
        <pt x="632" y="290" on="0"/>
        <pt x="490" y="-2" on="0"/>
      </contour>
    </TTGlyph>
    <TTGlyph name="uni05EA" xMin="70" yMin="0" xMax="563" yMax="561">
      <contour>
        <pt x="70" y="3" on="1"/>
        <pt x="70" y="13" on="1"/>
        <pt x="170" y="13" on="1"/>
        <pt x="151" y="147" on="0"/>
        <pt x="157" y="294" on="1"/>
        <pt x="164" y="428" on="0"/>
        <pt x="191" y="551" on="1"/>
        <pt x="90" y="551" on="1"/>
        <pt x="90" y="561" on="1"/>
        <pt x="360" y="561" on="1"/>
        <pt x="434" y="561" on="0"/>
        <pt x="524" y="494" on="0"/>
        <pt x="563" y="375" on="0"/>
        <pt x="563" y="298" on="1"/>
        <pt x="563" y="0" on="1"/>
        <pt x="553" y="0" on="1"/>
        <pt x="553" y="298" on="1"/>
        <pt x="553" y="374" on="0"/>
        <pt x="515" y="488" on="0"/>
        <pt x="430" y="551" on="0"/>
        <pt x="360" y="551" on="1"/>
        <pt x="201" y="551" on="1"/>
        <pt x="174" y="431" on="0"/>
        <pt x="167" y="293" on="1"/>
        <pt x="161" y="143" on="0"/>
        <pt x="182" y="3" on="1"/>
      </contour>
    </TTGlyph>
    <TTGlyph name="uni05F3" xMin="78" yMin="365" xMax="161" yMax="600">
      <contour>
        <pt x="78" y="365" on="1"/>
        <pt x="150" y="600" on="1"/>
        <pt x="161" y="600" on="1"/>
        <pt x="87" y="365" on="1"/>
      </contour>
    </TTGlyph>
    <TTGlyph name="uni05F4" xMin="78" yMin="365" xMax="297" yMax="600">
      <contour>
        <pt x="214" y="365" on="1"/>
        <pt x="286" y="600" on="1"/>
        <pt x="297" y="600" on="1"/>
        <pt x="224" y="365" on="1"/>
      </contour>
      <contour>
        <pt x="78" y="365" on="1"/>
        <pt x="150" y="600" on="1"/>
        <pt x="161" y="600" on="1"/>
        <pt x="88" y="365" on="1"/>
      </contour>
    </TTGlyph>
    <TTGlyph name="uni20AA" xMin="109" yMin="0" xMax="635" yMax="556">
      <contour>
        <pt x="263" y="0" on="1"/>
        <pt x="263" y="400" on="1"/>
        <pt x="273" y="400" on="1"/>
        <pt x="273" y="11" on="1"/>
        <pt x="416" y="11" on="1"/>
        <pt x="522" y="11" on="0"/>
        <pt x="625" y="132" on="0"/>
        <pt x="625" y="258" on="1"/>
        <pt x="625" y="556" on="1"/>
        <pt x="635" y="556" on="1"/>
        <pt x="635" y="258" on="1"/>
        <pt x="635" y="130" on="0"/>
        <pt x="528" y="0" on="0"/>
        <pt x="416" y="0" on="1"/>
      </contour>
      <contour>
        <pt x="109" y="0" on="1"/>
        <pt x="109" y="556" on="1"/>
        <pt x="247" y="556" on="1"/>
        <pt x="458" y="556" on="0"/>
        <pt x="458" y="298" on="1"/>
        <pt x="458" y="163" on="1"/>
        <pt x="448" y="163" on="1"/>
        <pt x="448" y="298" on="1"/>
        <pt x="448" y="546" on="0"/>
        <pt x="247" y="546" on="1"/>
        <pt x="119" y="546" on="1"/>
        <pt x="119" y="0" on="1"/>
      </contour>
    </TTGlyph>
    <TTGlyph name="uni2196" xMin="95" yMin="152" xMax="499" yMax="556">
      <contour>
        <pt x="97" y="249" on="1"/>
        <pt x="95" y="556" on="1"/>
        <pt x="403" y="554" on="1"/>
        <pt x="403" y="544" on="1"/>
        <pt x="111" y="547" on="1"/>
        <pt x="499" y="159" on="1"/>
        <pt x="493" y="152" on="1"/>
        <pt x="105" y="539" on="1"/>
        <pt x="107" y="249" on="1"/>
      </contour>
    </TTGlyph>
    <TTGlyph name="uni2197" xMin="76" yMin="152" xMax="480" yMax="556">
      <contour>
        <pt x="83" y="152" on="1"/>
        <pt x="76" y="159" on="1"/>
        <pt x="464" y="547" on="1"/>
        <pt x="173" y="544" on="1"/>
        <pt x="173" y="554" on="1"/>
        <pt x="480" y="556" on="1"/>
        <pt x="478" y="249" on="1"/>
        <pt x="468" y="249" on="1"/>
        <pt x="470" y="538" on="1"/>
      </contour>
    </TTGlyph>
    <TTGlyph name="uni2198" xMin="76" yMin="0" xMax="480" yMax="404">
      <contour>
        <pt x="173" y="2" on="1"/>
        <pt x="173" y="12" on="1"/>
        <pt x="464" y="9" on="1"/>
        <pt x="76" y="397" on="1"/>
        <pt x="83" y="404" on="1"/>
        <pt x="470" y="17" on="1"/>
        <pt x="468" y="307" on="1"/>
        <pt x="478" y="307" on="1"/>
        <pt x="480" y="0" on="1"/>
      </contour>
    </TTGlyph>
    <TTGlyph name="uni2199" xMin="95" yMin="0" xMax="499" yMax="404">
      <contour>
        <pt x="95" y="0" on="1"/>
        <pt x="97" y="308" on="1"/>
        <pt x="107" y="308" on="1"/>
        <pt x="105" y="18" on="1"/>
        <pt x="492" y="404" on="1"/>
        <pt x="499" y="398" on="1"/>
        <pt x="110" y="9" on="1"/>
        <pt x="402" y="12" on="1"/>
        <pt x="402" y="2" on="1"/>
      </contour>
    </TTGlyph>
    <TTGlyph name="uniFB2A" xMin="75" yMin="-3" xMax="651" yMax="686">
      <component glyphName="uni05E9" x="0" y="0" flags="0x204"/>
      <component glyphName="uni05C1" x="699" y="0" flags="0x4"/>
    </TTGlyph>
    <TTGlyph name="uniFB2B" xMin="75" yMin="-3" xMax="651" yMax="686">
      <component glyphName="uni05E9" x="0" y="0" flags="0x204"/>
      <component glyphName="uni05C2" x="5" y="0" flags="0x4"/>
    </TTGlyph>
    <TTGlyph name="uniFB2C" xMin="69" yMin="-3" xMax="644" yMax="686">
      <component glyphName="uni05E9.forDagesh" x="0" y="0" flags="0x204"/>
      <component glyphName="uni05BC" x="385" y="64" flags="0x4"/>
      <component glyphName="uni05C1" x="692" y="0" flags="0x4"/>
    </TTGlyph>
    <TTGlyph name="uniFB2D" xMin="69" yMin="-3" xMax="644" yMax="686">
      <component glyphName="uni05E9.forDagesh" x="0" y="0" flags="0x204"/>
      <component glyphName="uni05BC" x="385" y="64" flags="0x4"/>
      <component glyphName="uni05C2" x="-2" y="0" flags="0x4"/>
    </TTGlyph>
    <TTGlyph name="uniFB2E" xMin="83" yMin="-108" xMax="607" yMax="562">
      <component glyphName="uni05D0" x="0" y="0" flags="0x204"/>
      <component glyphName="uni05B7" x="359" y="0" flags="0x4"/>
    </TTGlyph>
    <TTGlyph name="uniFB2F" xMin="83" yMin="-247" xMax="607" yMax="562">
      <component glyphName="uni05D0" x="0" y="0" flags="0x204"/>
      <component glyphName="uni05B8" x="359" y="0" flags="0x4"/>
    </TTGlyph>
    <TTGlyph name="uniFB30" xMin="83" yMin="-2" xMax="607" yMax="562">
      <component glyphName="uni05D0.forDagesh" x="0" y="0" flags="0x204"/>
      <component glyphName="uni05BC" x="240" y="-68" flags="0x4"/>
    </TTGlyph>
    <TTGlyph name="uniFB31" xMin="75" yMin="0" xMax="524" yMax="561">
      <component glyphName="uni05D1" x="0" y="0" flags="0x204"/>
      <component glyphName="uni05BC" x="198" y="64" flags="0x4"/>
    </TTGlyph>
    <TTGlyph name="uniFB32" xMin="60" yMin="-1" xMax="259" yMax="561">
      <component glyphName="uni05D2" x="0" y="0" flags="0x204"/>
      <component glyphName="uni05BC" x="81" y="65" flags="0x4"/>
    </TTGlyph>
    <TTGlyph name="uniFB33" xMin="45" yMin="4" xMax="468" yMax="560">
      <component glyphName="uni05D3" x="0" y="0" flags="0x204"/>
      <component glyphName="uni05BC" x="162" y="64" flags="0x4"/>
    </TTGlyph>
    <TTGlyph name="uniFB34" xMin="94" yMin="0" xMax="525" yMax="557">
      <component glyphName="uni05D4" x="0" y="0" flags="0x204"/>
      <component glyphName="uni05BC" x="260" y="64" flags="0x4"/>
    </TTGlyph>
    <TTGlyph name="uniFB35" xMin="77" yMin="-1" xMax="199" yMax="563">
      <component glyphName="uni05D5" x="0" y="0" flags="0x204"/>
      <component glyphName="uni05BC" x="61" y="64" flags="0x4"/>
    </TTGlyph>
    <TTGlyph name="uniFB36" xMin="64" yMin="-1" xMax="264" yMax="560">
      <component glyphName="uni05D6" x="0" y="0" flags="0x204"/>
      <component glyphName="uni05BC" x="30" y="64" flags="0x4"/>
    </TTGlyph>
    <TTGlyph name="uniFB38" xMin="94" yMin="-11" xMax="585" yMax="559">
      <component glyphName="uni05D8" x="0" y="0" flags="0x204"/>
      <component glyphName="uni05BC" x="283" y="64" flags="0x4"/>
    </TTGlyph>
    <TTGlyph name="uniFB39" xMin="72" yMin="237" xMax="267" yMax="565">
      <component glyphName="uni05D9" x="0" y="0" flags="0x204"/>
      <component glyphName="uni05BC" x="78" y="127" flags="0x4"/>
    </TTGlyph>
    <TTGlyph name="uniFB3A" xMin="90" yMin="-125" xMax="475" yMax="558">
      <component glyphName="uni05DA" x="0" y="0" flags="0x204"/>
      <component glyphName="uni05BC" x="186" y="177" flags="0x4"/>
    </TTGlyph>
    <TTGlyph name="uniFB3B" xMin="69" yMin="0" xMax="449" yMax="561">
      <component glyphName="uni05DB" x="0" y="0" flags="0x204"/>
      <component glyphName="uni05BC" x="153" y="64" flags="0x4"/>
    </TTGlyph>
    <TTGlyph name="uniFB3C" xMin="78" yMin="0" xMax="477" yMax="730">
      <component glyphName="uni05DC" x="0" y="0" flags="0x204"/>
      <component glyphName="uni05BC" x="199" y="65" flags="0x4"/>
    </TTGlyph>
    <TTGlyph name="uniFB3E" xMin="70" yMin="-1" xMax="606" yMax="571">
      <component glyphName="uni05DE" x="0" y="0" flags="0x204"/>
      <component glyphName="uni05BC" x="321" y="64" flags="0x4"/>
    </TTGlyph>
    <TTGlyph name="uniFB40" xMin="80" yMin="0" xMax="284" yMax="561">
      <component glyphName="uni05E0" x="0" y="0" flags="0x204"/>
      <component glyphName="uni05BC" x="99" y="64" flags="0x4"/>
    </TTGlyph>
    <TTGlyph name="uniFB41" xMin="71" yMin="-4" xMax="590" yMax="561">
      <component glyphName="uni05E1" x="0" y="0" flags="0x204"/>
      <component glyphName="uni05BC" x="293" y="83" flags="0x4"/>
    </TTGlyph>
    <TTGlyph name="uniFB43" xMin="70" yMin="-125" xMax="473" yMax="564">
      <component glyphName="uni05E3" x="0" y="0" flags="0x204"/>
      <component glyphName="uni05BC" x="273" y="58" flags="0x4"/>
    </TTGlyph>
    <TTGlyph name="uniFB44" xMin="70" yMin="-2" xMax="529" yMax="560">
      <component glyphName="uni05E4" x="0" y="0" flags="0x204"/>
      <component glyphName="uni05BC" x="329" y="64" flags="0x4"/>
    </TTGlyph>
    <TTGlyph name="uniFB46" xMin="65" yMin="0" xMax="486" yMax="562">
      <component glyphName="uni05E6" x="0" y="0" flags="0x204"/>
      <component glyphName="uni05BC" x="82" y="58" flags="0x4"/>
    </TTGlyph>
    <TTGlyph name="uniFB47" xMin="94" yMin="-125" xMax="518" yMax="555">
      <component glyphName="uni05E7" x="0" y="0" flags="0x204"/>
      <component glyphName="uni05BC" x="262" y="83" flags="0x4"/>
    </TTGlyph>
    <TTGlyph name="uniFB48" xMin="59" yMin="0" xMax="458" yMax="556">
      <component glyphName="uni05E8" x="0" y="0" flags="0x204"/>
      <component glyphName="uni05BC" x="194" y="64" flags="0x4"/>
    </TTGlyph>
    <TTGlyph name="uniFB49" xMin="69" yMin="-3" xMax="644" yMax="556">
      <component glyphName="uni05E9.forDagesh" x="0" y="0" flags="0x204"/>
      <component glyphName="uni05BC" x="385" y="64" flags="0x4"/>
    </TTGlyph>
    <TTGlyph name="uniFB4A" xMin="70" yMin="0" xMax="563" yMax="561">
      <component glyphName="uni05EA" x="0" y="0" flags="0x204"/>
      <component glyphName="uni05BC" x="318" y="64" flags="0x4"/>
    </TTGlyph>
    <TTGlyph name="uniFB4B" xMin="77" yMin="-1" xMax="199" yMax="686">
      <component glyphName="uni05D5" x="0" y="0" flags="0x204"/>
      <component glyphName="uni05B9" x="164" y="0" flags="0x4"/>
    </TTGlyph>
    <TTGlyph name="zero" xMin="56" yMin="-1" xMax="484" yMax="604">
      <contour>
        <pt x="270" y="-1" on="1"/>
        <pt x="208" y="-1" on="0"/>
        <pt x="111" y="76" on="0"/>
        <pt x="56" y="214" on="0"/>
        <pt x="56" y="303" on="1"/>
        <pt x="56" y="392" on="0"/>
        <pt x="111" y="528" on="0"/>
        <pt x="208" y="604" on="0"/>
        <pt x="270" y="604" on="1"/>
        <pt x="332" y="604" on="0"/>
        <pt x="429" y="528" on="0"/>
        <pt x="484" y="392" on="0"/>
        <pt x="484" y="303" on="1"/>
        <pt x="484" y="213" on="0"/>
        <pt x="429" y="76" on="0"/>
        <pt x="332" y="-1" on="0"/>
      </contour>
      <contour>
        <pt x="270" y="9" on="1"/>
        <pt x="330" y="9" on="0"/>
        <pt x="422" y="83" on="0"/>
        <pt x="474" y="216" on="0"/>
        <pt x="474" y="303" on="1"/>
        <pt x="474" y="389" on="0"/>
        <pt x="422" y="520" on="0"/>
        <pt x="329" y="594" on="0"/>
        <pt x="270" y="594" on="1"/>
        <pt x="211" y="594" on="0"/>
        <pt x="118" y="520" on="0"/>
        <pt x="66" y="389" on="0"/>
        <pt x="66" y="303" on="1"/>
        <pt x="66" y="216" on="0"/>
        <pt x="118" y="83" on="0"/>
        <pt x="211" y="9" on="0"/>
      </contour>
    </TTGlyph>
</ttFont>
